
<svg xmlns="http://www.w3.org/2000/svg" version="1.1" xmlns:xlink="http://www.w3.org/1999/xlink" preserveAspectRatio="none" x="0px" y="0px" width="500px" height="62px" viewBox="0 0 500 62">
<defs>
<g id="Layer0_0_FILL">
<path fill="#FFFFFF" stroke="none" d="
M 21.2 15.9
Q 22 14 22 12 22 10.1 21.2 8.1 20.35 6.25 19.05 4.95 17.75 3.65 15.9 2.8 13.9 2 12 2 10 2 8.1 2.8 6.25 3.65 4.9 4.95 3.6 6.25 2.75 8.1 2 10 2 12 2 14.1 2.75 15.9 3.6 17.8 4.9 19.1 6.25 20.45 8.1 21.25 9.9 22 12 22 14.05 22 15.9 21.25 17.75 20.4 19.05 19.1 20.4 17.8 21.2 15.9
M 17.65 6.35
Q 20 8.7 20 12 20 15.35 17.65 17.7 15.35 20 12 20 8.6 20 6.3 17.7 4 15.4 4 12 4 8.65 6.3 6.35 8.65 4 12 4 15.3 4 17.65 6.35
M 11.25 11.3
Q 11 11.55 11 12
L 11 16
Q 11 16.5 11.25 16.75 11.5 17 12 17 12.45 17 12.7 16.75 13 16.45 13 16
L 13 12
Q 13 11.6 12.7 11.3 12.4 11 12 11 11.55 11 11.25 11.3
M 12.7 8.75
Q 13 8.45 13 8 13 7.6 12.7 7.3 12.4 7 12 7 11.55 7 11.25 7.3 11 7.55 11 8 11 8.5 11.25 8.75 11.5 9 12 9 12.45 9 12.7 8.75 Z"/>
</g>

<g id="Layer0_1_FILL">
<path fill="#FFFFFF" stroke="none" d="
M 200.75 33.3
Q 201.35 32.75 201.35 31.85 201.35 31 200.75 30.4 200.15 29.8 199.3 29.8 198.8 29.8 198.4 30 198 30.2 197.75 30.45
L 190.55 37.5 190.55 31.55
Q 190.55 30.65 189.95 30.1 189.4 29.5 188.45 29.5 187.55 29.5 187 30.1 186.4 30.65 186.4 31.55
L 186.4 49.05
Q 186.4 49.95 187 50.5 187.55 51.1 188.45 51.1 189.4 51.1 189.95 50.5 190.55 49.95 190.55 49.05
L 190.55 43.25 192.45 41.35 198.5 50.2
Q 199.1 51.1 200.15 51.1 201.05 51.1 201.65 50.5 202.25 49.9 202.25 49.05 202.25 48.7 202.15 48.4 202.05 48.1 201.9 47.85
L 195.5 38.4 200.75 33.3
M 232.6 34.95
Q 231.3 34.95 230.15 35.25 229 35.55 228.15 36.1 227.3 36.65 226.85 37.3 226.35 38 226.35 38.75 226.35 39.5 226.85 39.95 227.35 40.35 228.15 40.35 228.8 40.35 229.25 40.1 229.75 39.85 230.15 39.45 230.55 38.95 231.15 38.6 231.75 38.25 232.65 38.25 233.4 38.25 233.85 38.4 234.35 38.65 234.6 39 234.85 39.35 234.85 39.8 234.85 40.4 234.35 40.7 233.85 41 233.05 41.15 232.25 41.25 231.25 41.4 228.05 41.9 226.6 43.15 225.2 44.4 225.2 46.55 225.2 48.1 225.95 49.15 226.7 50.15 227.95 50.7 229.15 51.25 230.55 51.25 232.4 51.25 233.5 50.6 234.6 49.95 235.45 48.75
L 235.5 48.75 235.55 48.95
Q 235.75 49.9 236.4 50.5 237.1 51.05 238.3 51.1 239.4 51.15 240 50.55 240.6 50 240.6 49.15 240.6 48.45 240.15 48.05 239.75 47.6 239.25 47.45 239 47.35 238.9 47.2 238.8 47.1 238.8 46.7
L 238.8 40.75
Q 238.8 39.05 238.1 37.7 237.4 36.4 236.05 35.65 234.65 34.95 232.6 34.95
M 229.75 47.4
Q 229.2 46.95 229.2 46.2 229.2 45.55 229.7 45.05 230.25 44.6 231.6 44.35 232.2 44.2 232.75 44.1 233.3 44.05 233.8 43.95 234.35 43.8 234.7 43.55 234.75 43.5 234.8 43.5 234.85 43.5 234.85 43.6
L 234.85 44.65
Q 234.85 45.65 234.4 46.35 233.95 47.1 233.15 47.45 232.35 47.85 231.4 47.85 230.3 47.85 229.75 47.4
M 207.05 35.05
Q 206.2 35.05 205.65 35.65 205.05 36.2 205.05 37.05
L 205.05 49.1
Q 205.05 49.9 205.65 50.5 206.2 51.1 207.05 51.1 207.85 51.1 208.45 50.5 209.05 49.9 209.05 49.1
L 209.05 37.05
Q 209.05 36.2 208.45 35.65 207.85 35.05 207.05 35.05
M 207.05 28.9
Q 206.1 28.9 205.5 29.5 204.9 30.15 204.9 31.2 204.9 32.3 205.5 32.9 206.1 33.5 207.05 33.5 208 33.5 208.6 32.9 209.2 32.3 209.2 31.2 209.2 30.15 208.6 29.5 208 28.9 207.05 28.9
M 214.35 35.35
L 213.8 35.35
Q 213.05 35.35 212.55 35.85 212.05 36.35 212.05 37.1 212.05 37.8 212.55 38.3 213.05 38.85 213.8 38.85
L 214.35 38.85 214.35 46.65
Q 214.35 47.85 214.85 48.85 215.3 49.9 216.3 50.5 217.3 51.1 218.75 51.1 219.65 51.1 220.5 50.85 221.35 50.55 221.95 50 222.5 49.4 222.5 48.6 222.5 47.75 221.95 47.15 221.35 46.6 220.55 46.6 220.1 46.6 219.8 46.75 219.5 46.85 219.3 47.05 219.05 47.2 218.8 47.2 218.55 47.2 218.4 47 218.3 46.75 218.3 46.4
L 218.3 38.85 221.05 38.85
Q 221.75 38.85 222.3 38.3 222.8 37.8 222.8 37.1 222.8 36.35 222.3 35.85 221.75 35.35 221.05 35.35
L 218.3 35.35 218.3 34.05
Q 218.3 33.2 217.7 32.65 217.15 32.05 216.3 32.05 215.45 32.05 214.9 32.65 214.35 33.2 214.35 34.05
L 214.35 35.35
M 243.9 35.65
Q 243.35 36.2 243.35 37.1
L 243.35 55.1
Q 243.35 55.95 243.9 56.55 244.5 57.1 245.35 57.1 246.2 57.1 246.75 56.55 247.35 55.95 247.35 55.1
L 247.35 49.3
Q 247.625 49.65 247.95 49.95 248.65 50.55 249.55 50.9 250.45 51.25 251.65 51.25 253.25 51.25 254.5 50.6 255.7 49.95 256.55 48.8 257.4 47.6 257.85 46.15 258.3 44.7 258.3 43.1 258.3 41.55 257.85 40.1 257.4 38.65 256.6 37.45 255.75 36.3 254.5 35.6 253.2 34.9 251.6 34.9 249.7 34.9 248.5 35.9 247.80390625 36.4568359375 247.35 37.1 247.2775390625 36.17109375 246.8 35.65 246.2 35.05 245.35 35.05 244.5 35.05 243.9 35.65
M 250.65 47.65
Q 249 47.65 248.1 46.4 247.2 45.2 247.2 42.95 247.2 40.75 248.1 39.6 249 38.45 250.6 38.45 251.8 38.45 252.55 39 253.35 39.6 253.75 40.6 254.2 41.6 254.2 43 254.2 45.2 253.25 46.4 252.3 47.65 250.65 47.65
M 321.6 37.05
Q 321.6 36.2 321 35.65 320.45 35.1 319.6 35.1 318.85 35.1 318.3 35.55
L 312.3 40.4 312.3 30.9
Q 312.3 30.05 311.7 29.5 311.1 28.9 310.3 28.9 309.45 28.9 308.9 29.5 308.3 30.05 308.3 30.9
L 308.3 49.1
Q 308.3 49.95 308.9 50.5 309.45 51.1 310.3 51.1 311.1 51.1 311.7 50.5 312.3 49.95 312.3 49.1
L 312.3 45.55 314.1 44.1 318.3 50.25
Q 318.6 50.6 319.05 50.85 319.45 51.1 319.95 51.1 320.8 51.1 321.35 50.5 321.95 49.95 321.95 49.1 321.95 48.45 321.55 47.95
L 317.1 41.6 320.85 38.6
Q 321.6 38 321.6 37.05
M 286.55 31.65
Q 286.55 30.75 285.95 30.15 285.4 29.55 284.5 29.55 283.6 29.55 283 30.15 282.4 30.75 282.4 31.65
L 282.4 38.25 274.3 38.25 274.3 31.65
Q 274.3 30.75 273.7 30.15 273.15 29.55 272.2 29.55 271.3 29.55 270.75 30.15 270.15 30.75 270.15 31.65
L 270.15 49.05
Q 270.15 49.95 270.75 50.5 271.3 51.1 272.2 51.1 273.15 51.1 273.7 50.5 274.3 49.95 274.3 49.05
L 274.3 42 282.4 42 282.4 49.05
Q 282.4 49.95 283 50.5 283.6 51.1 284.5 51.1 285.4 51.1 285.95 50.5 286.55 49.95 286.55 49.05
L 286.55 31.65
M 301 35.65
Q 299.6 34.95 297.55 34.95 296.25 34.95 295.1 35.25 293.95 35.55 293.1 36.1 292.25 36.65 291.8 37.3 291.3 38 291.3 38.75 291.3 39.5 291.8 39.95 292.3 40.35 293.1 40.35 293.75 40.35 294.2 40.1 294.7 39.85 295.1 39.45 295.5 38.95 296.1 38.6 296.7 38.25 297.6 38.25 298.35 38.25 298.8 38.4 299.3 38.65 299.55 39 299.8 39.35 299.8 39.8 299.8 40.4 299.3 40.7 298.8 41 298 41.15 297.2 41.25 296.2 41.4 293 41.9 291.55 43.15 290.15 44.4 290.15 46.55 290.15 48.1 290.9 49.15 291.65 50.15 292.9 50.7 294.1 51.25 295.5 51.25 297.35 51.25 298.45 50.6 299.55 49.95 300.4 48.75
L 300.45 48.75 300.5 48.95
Q 300.7 49.9 301.35 50.5 302.05 51.05 303.25 51.1 304.35 51.15 304.95 50.55 305.55 50 305.55 49.15 305.55 48.45 305.1 48.05 304.7 47.6 304.2 47.45 303.95 47.35 303.85 47.2 303.75 47.1 303.75 46.7
L 303.75 40.75
Q 303.75 39.05 303.05 37.7 302.35 36.4 301 35.65
M 294.7 47.4
Q 294.15 46.95 294.15 46.2 294.15 45.55 294.65 45.05 295.2 44.6 296.55 44.35 297.15 44.2 297.7 44.1 298.25 44.05 298.75 43.95 299.3 43.8 299.65 43.55 299.7 43.5 299.75 43.5 299.8 43.5 299.8 43.6
L 299.8 44.65
Q 299.8 45.65 299.35 46.35 298.9 47.1 298.1 47.45 297.3 47.85 296.35 47.85 295.25 47.85 294.7 47.4
M 361.2 35.6
Q 359.9 34.9 358.3 34.9 356.5 34.9 355.25 35.8 354.47109375 36.3091796875 353.8 37.15
L 353.8 37.05
Q 353.8 36.2 353.2 35.65 352.6 35.05 351.8 35.05 350.95 35.05 350.35 35.6 349.8 36.2 349.8 37.05
L 349.8 49.1
Q 349.8 49.95 350.35 50.55 350.95 51.1 351.8 51.1 352.65 51.1 353.2 50.55 353.8 49.95 353.8 49.1
L 353.8 41.9
Q 353.8 41 354.15 40.25 354.55 39.5 355.3 39.05 356 38.65 357.05 38.65 358.4 38.65 359.15 39.5 359.9 40.35 359.9 41.75
L 359.9 49.1
Q 359.9 49.95 360.45 50.55 361.05 51.1 361.9 51.1 362.75 51.1 363.35 50.55 363.9 49.95 363.9 49.1
L 363.9 41.05
Q 363.9 39.05 363.2 37.7 362.45 36.3 361.2 35.6
M 343.6 35.05
Q 342.75 35.05 342.2 35.65 341.6 36.2 341.6 37.05
L 341.6 49.1
Q 341.6 49.9 342.2 50.5 342.75 51.1 343.6 51.1 344.4 51.1 345 50.5 345.6 49.9 345.6 49.1
L 345.6 37.05
Q 345.6 36.2 345 35.65 344.4 35.05 343.6 35.05
M 338.25 37.05
Q 338.25 36.2 337.65 35.65 337.1 35.1 336.25 35.1 335.5 35.1 334.95 35.55
L 328.95 40.4 328.95 30.9
Q 328.95 30.05 328.35 29.5 327.75 28.9 326.95 28.9 326.1 28.9 325.55 29.5 324.95 30.05 324.95 30.9
L 324.95 49.1
Q 324.95 49.95 325.55 50.5 326.1 51.1 326.95 51.1 327.75 51.1 328.35 50.5 328.95 49.95 328.95 49.1
L 328.95 45.55 330.75 44.1 334.95 50.25
Q 335.25 50.6 335.7 50.85 336.1 51.1 336.6 51.1 337.45 51.1 338 50.5 338.6 49.95 338.6 49.1 338.6 48.45 338.2 47.95
L 333.75 41.6 337.5 38.6
Q 338.25 38 338.25 37.05
M 392.7 34.95
Q 391.4 34.95 390.25 35.25 389.1 35.55 388.25 36.1 387.4 36.65 386.95 37.3 386.45 38 386.45 38.75 386.45 39.5 386.95 39.95 387.45 40.35 388.25 40.35 388.9 40.35 389.35 40.1 389.85 39.85 390.25 39.45 390.65 38.95 391.25 38.6 391.85 38.25 392.75 38.25 393.5 38.25 393.95 38.4 394.45 38.65 394.7 39 394.95 39.35 394.95 39.8 394.95 40.4 394.45 40.7 393.95 41 393.15 41.15 392.35 41.25 391.35 41.4 388.15 41.9 386.7 43.15 385.3 44.4 385.3 46.55 385.3 48.1 386.05 49.15 386.8 50.15 388.05 50.7 389.25 51.25 390.65 51.25 392.5 51.25 393.6 50.6 394.7 49.95 395.55 48.75
L 395.6 48.75 395.65 48.95
Q 395.85 49.9 396.5 50.5 397.2 51.05 398.4 51.1 399.5 51.15 400.1 50.55 400.7 50 400.7 49.15 400.7 48.45 400.25 48.05 399.85 47.6 399.35 47.45 399.1 47.35 399 47.2 398.9 47.1 398.9 46.7
L 398.9 40.75
Q 398.9 39.05 398.2 37.7 397.5 36.4 396.15 35.65 394.75 34.95 392.7 34.95
M 389.3 46.2
Q 389.3 45.55 389.8 45.05 390.35 44.6 391.7 44.35 392.3 44.2 392.85 44.1 393.4 44.05 393.9 43.95 394.45 43.8 394.8 43.55 394.85 43.5 394.9 43.5 394.95 43.5 394.95 43.6
L 394.95 44.65
Q 394.95 45.65 394.5 46.35 394.05 47.1 393.25 47.45 392.45 47.85 391.5 47.85 390.4 47.85 389.85 47.4 389.3 46.95 389.3 46.2
M 382 30.9
Q 382 30.05 381.45 29.45 380.9 28.9 380 28.9 379.15 28.9 378.6 29.45 378 30.05 378 30.9
L 378 36.7
Q 377.696484375 36.4041015625 377.35 36.15 376.65 35.55 375.75 35.2 374.85 34.9 373.75 34.9 371.8 34.9 370.25 35.95 368.75 37 367.9 38.8 367.05 40.65 367.05 43.05 367.05 45.45 367.9 47.3 368.75 49.15 370.25 50.2 371.75 51.25 373.75 51.25 375.1 51.25 376.1 50.7 377.1 50.15 377.75 49.35 377.8923828125 49.1771484375 378 49 378.1037109375 49.8208984375 378.6 50.4 379.15 51.1 380 51.1 380.9 51.1 381.45 50.5 382 49.95 382 49.05
L 382 30.9
M 372.1 46.45
Q 371.1 45.25 371.1 43.1 371.1 40.95 372.1 39.75 373 38.5 374.65 38.5 376.3 38.5 377.25 39.75 378.15 41 378.15 43.1 378.15 45.25 377.2 46.45 376.25 47.6 374.7 47.65 373 47.65 372.1 46.45 Z"/>
</g>
</defs>

<g transform="matrix( 1.79998779296875, 0, 0, 1.79998779296875, 102.25,9.4) ">
<use xlink:href="#Layer0_0_FILL"/>
</g>

<g transform="matrix( 1, 0, 0, 1, -6.55,-9) ">
<use xlink:href="#Layer0_1_FILL"/>
</g>
</svg>
