
<svg xmlns="http://www.w3.org/2000/svg" version="1.1" xmlns:xlink="http://www.w3.org/1999/xlink" preserveAspectRatio="none" x="0px" y="0px" width="500px" height="62px" viewBox="0 0 500 62">
<defs>
<g id="Layer1_0_FILL">
<path fill="#FFFFFF" stroke="none" d="
M 123.8 43.8
Q 126.1 41.45 127.65 38 129 34.8 129 31 129 27.4 127.65 24 126.1 20.65 123.8 18.3 121.35 15.95 118 14.45 114.6 13 111 13 107.55 13 103.95 14.45 100.65 15.95 98.3 18.3 95.95 20.65 94.45 24 93 27.6 93 31 93 34.6 94.45 38 95.85 41.45 98.3 43.8 100.65 46.1 103.95 47.65 107.3 49 111 49 114.8 49 118 47.65 121.35 46.2 123.8 43.8
M 111 16.6
Q 117.05 16.6 121.25 20.85 125.4 24.95 125.4 31 125.4 37.1 121.25 41.25 117.1 45.4 111 45.4 104.95 45.4 100.8 41.25 96.6 37.05 96.6 31 96.6 25.05 100.8 20.85 105.05 16.6 111 16.6
M 117.75 32.35
Q 118.2 31.9 118.2 31 118.2 30.2 117.75 29.75 117.2 29.2 116.4 29.2
L 110.65 29.2 112.25 27.6
Q 112.8 27.2 112.8 26.3 112.8 25.6 112.25 25.05 111.8 24.6 111 24.6 110.35 24.6 109.75 25.05
L 105.05 29.75
Q 104.5 30.3 104.5 31 104.5 31.7 105.05 32.25
L 109.75 36.95
Q 110.25 37.5 111 37.5 111.8 37.5 112.25 36.95 112.8 36.6 112.8 35.7 112.8 34.95 112.25 34.4
L 110.65 32.8 116.4 32.8
Q 117.3 32.8 117.75 32.35 Z"/>
</g>

<g id="Layer0_0_FILL">
<path fill="#FFFFFF" stroke="none" d="
M 188.35 28.2
Q 188.95 27.6 188.95 26.5 188.95 25.45 188.35 24.8 187.75 24.2 186.75 24.2 185.85 24.2 185.25 24.8 184.65 25.45 184.65 26.5 184.65 27.6 185.25 28.2 185.85 28.8 186.75 28.8 187.75 28.8 188.35 28.2
M 194.75 26.5
Q 194.75 25.45 194.15 24.8 193.55 24.2 192.6 24.2 191.65 24.2 191.05 24.8 190.45 25.45 190.45 26.5 190.45 27.6 191.05 28.2 191.65 28.8 192.6 28.8 193.55 28.8 194.15 28.2 194.75 27.6 194.75 26.5
M 196.75 32.2
Q 196.75 31.35 196.2 30.8 195.6 30.2 194.8 30.2 193.95 30.2 193.35 30.8 192.75 31.35 192.75 32.2
L 192.75 39.4
Q 192.75 40.3 192.35 41 192 41.75 191.25 42.2 190.55 42.65 189.5 42.65 188.25 42.65 187.4 42.05 186.6 41.45 186.6 39.8
L 186.6 32.2
Q 186.6 31.35 186.05 30.8 185.5 30.2 184.65 30.2 183.8 30.2 183.25 30.8 182.65 31.35 182.65 32.2
L 182.65 40.45
Q 182.65 42.35 183.25 43.65 183.9 45 185.1 45.7 186.35 46.4 188.25 46.4 190.05 46.4 191.35 45.5 192.1 44.95 192.75 44.1
L 192.75 44.4
Q 192.75 45.2 193.35 45.8 193.95 46.35 194.8 46.35 195.6 46.35 196.2 45.8 196.75 45.2 196.75 44.4
L 196.75 32.2
M 173.95 29.05
L 178.3 29.05
Q 179.2 29.05 179.75 28.5 180.3 27.9 180.3 27.1 180.3 26.2 179.75 25.65 179.2 25.1 178.3 25.1
L 165.5 25.1
Q 164.65 25.1 164.1 25.65 163.5 26.2 163.5 27.1 163.5 27.9 164.1 28.5 164.65 29.05 165.5 29.05
L 169.85 29.05 169.85 44.35
Q 169.85 45.25 170.45 45.8 171 46.4 171.9 46.4 172.8 46.4 173.4 45.8 173.95 45.25 173.95 44.35
L 173.95 29.05
M 221.75 30.9
Q 220.45 30.2 218.75 30.2 217.65 30.2 216.6 30.55 215.6 30.85 214.7 31.7 214.25 32.1 213.85 32.75 213.25 31.8 212.3 31.15 210.9 30.2 209.15 30.2 208.2 30.2 207.25 30.55 206.3 30.9 205.55 31.65 205.2 31.95 204.9 32.35
L 204.9 32.25
Q 204.9 31.5 204.35 30.9 203.85 30.35 202.95 30.35 202.1 30.35 201.55 30.95 200.95 31.5 200.95 32.35
L 200.95 44.4
Q 200.95 45.25 201.55 45.8 202.1 46.4 202.95 46.4 203.75 46.4 204.35 45.8 204.95 45.25 204.95 44.4
L 204.95 37.2
Q 204.95 36.1 205.3 35.4 205.7 34.65 206.45 34.3 207.15 33.95 208.1 33.95 209.45 33.95 210.15 34.7 210.9 35.5 210.9 36.9
L 210.9 44.4
Q 210.9 45.25 211.45 45.8 212.05 46.4 212.85 46.4 213.7 46.4 214.3 45.8 214.9 45.25 214.9 44.4
L 214.9 36.9
Q 214.9 36 215.2 35.3 215.55 34.65 216.2 34.3 216.8 33.95 217.75 33.95 219.05 33.95 219.8 34.65 220.5 35.4 220.5 36.9
L 220.5 44.4
Q 220.5 45.25 221.1 45.8 221.7 46.4 222.5 46.4 223.35 46.4 223.9 45.8 224.5 45.25 224.5 44.4
L 224.5 36.35
Q 224.5 34.35 223.75 33 223.05 31.6 221.75 30.9
M 261.75 31.8
Q 261.5 31.15 261 30.75 260.5 30.35 259.85 30.35 259.1 30.35 258.6 30.8 258.15 31.3 258 31.9 257.8 32.55 258 33.15
L 262.95 45.55 261.95 48.2
Q 261.9 48.45 261.75 48.6 261.65 48.75 261.4 48.75 261.3 48.75 261.1 48.65 260.9 48.55 260.75 48.35 260.55 48.1 260.25 47.85 259.95 47.6 259.25 47.6 258.4 47.6 257.9 48.1 257.4 48.55 257.4 49.35 257.4 50.1 257.9 50.85 258.45 51.6 259.4 52.05 260.35 52.5 261.65 52.5 263.3 52.5 264.2 51.65 265.1 50.75 265.85 48.9
L 272.15 33.05
Q 272.35 32.5 272.2 31.85 272.05 31.2 271.55 30.8 271.1 30.35 270.35 30.35 269.65 30.35 269.15 30.7 268.65 31.05 268.45 31.6
L 265.1 40.35 261.75 31.8
M 254.85 35.65
Q 254.85 32.4 253.65 29.9 252.4 27.45 250.35 26.05 248.3 24.65 245.6 24.65 242.95 24.65 240.85 26.05 238.75 27.45 237.55 29.9 236.35 32.4 236.35 35.65 236.35 38.85 237.55 41.3 238.75 43.8 240.8 45.2 242.9 46.55 245.6 46.55 248.3 46.55 250.35 45.2 252.45 43.8 253.65 41.3 254.85 38.85 254.85 35.65
M 245.6 28.4
Q 247.2 28.4 248.35 29.25 249.45 30.1 250.05 31.75 250.65 33.4 250.65 35.65 250.65 37.9 250.05 39.5 249.45 41.1 248.35 41.95 247.2 42.85 245.6 42.85 244 42.85 242.85 41.95 241.7 41.1 241.1 39.5 240.5 37.9 240.5 35.65 240.5 33.4 241.1 31.75 241.7 30.1 242.85 29.25 244 28.4 245.6 28.4
M 315.6 26.2
Q 315.6 25.35 315 24.75 314.45 24.2 313.6 24.2 312.75 24.2 312.15 24.75 311.6 25.35 311.6 26.2
L 311.6 44.35
Q 311.6 45.25 312.15 45.8 312.75 46.4 313.6 46.4 314.45 46.4 315 45.8 315.6 45.25 315.6 44.35
L 315.6 26.2
M 289.25 32.2
Q 289.25 31.35 288.7 30.8 288.1 30.2 287.3 30.2 286.45 30.2 285.85 30.8 285.25 31.35 285.25 32.2
L 285.25 39.4
Q 285.25 40.3 284.85 41 284.5 41.75 283.75 42.2 283.05 42.65 282 42.65 280.75 42.65 279.9 42.05 279.1 41.45 279.1 39.8
L 279.1 32.2
Q 279.1 31.35 278.55 30.8 278 30.2 277.15 30.2 276.3 30.2 275.75 30.8 275.15 31.35 275.15 32.2
L 275.15 40.45
Q 275.15 42.35 275.75 43.65 276.4 45 277.6 45.7 278.85 46.4 280.75 46.4 282.55 46.4 283.85 45.5 284.6 44.95 285.25 44.1
L 285.25 44.4
Q 285.25 45.2 285.85 45.8 286.45 46.35 287.3 46.35 288.1 46.35 288.7 45.8 289.25 45.2 289.25 44.4
L 289.25 32.2
M 295.45 30.35
Q 294.6 30.35 294 30.9 293.45 31.5 293.45 32.35
L 293.45 44.4
Q 293.45 45.25 294 45.85 294.6 46.4 295.45 46.4 296.3 46.4 296.85 45.85 297.45 45.25 297.45 44.4
L 297.45 37.2
Q 297.45 36.3 297.8 35.55 298.2 34.8 298.95 34.35 299.65 33.95 300.7 33.95 302.05 33.95 302.8 34.8 303.55 35.65 303.55 37.05
L 303.55 44.4
Q 303.55 45.25 304.1 45.85 304.7 46.4 305.55 46.4 306.4 46.4 307 45.85 307.55 45.25 307.55 44.4
L 307.55 36.35
Q 307.55 34.35 306.85 33 306.1 31.6 304.85 30.9 303.55 30.2 301.95 30.2 300.15 30.2 298.9 31.1 298.1 31.6 297.45 32.5
L 297.45 32.35
Q 297.45 31.5 296.85 30.95 296.25 30.35 295.45 30.35
M 326.75 36.45
Q 325.95 36.55 324.95 36.7 321.75 37.2 320.3 38.45 318.9 39.7 318.9 41.85 318.9 43.4 319.65 44.45 320.4 45.45 321.65 46 322.85 46.55 324.25 46.55 326.1 46.55 327.2 45.9 328.3 45.25 329.15 44.05
L 329.2 44.05 329.25 44.25
Q 329.45 45.2 330.1 45.8 330.8 46.35 332 46.4 333.1 46.45 333.7 45.85 334.3 45.3 334.3 44.45 334.3 43.75 333.85 43.35 333.45 42.9 332.95 42.75 332.7 42.65 332.6 42.5 332.5 42.4 332.5 42
L 332.5 36.05
Q 332.5 34.35 331.8 33 331.1 31.7 329.75 30.95 328.35 30.25 326.3 30.25 325 30.25 323.85 30.55 322.7 30.85 321.85 31.4 321 31.95 320.55 32.6 320.05 33.3 320.05 34.05 320.05 34.8 320.55 35.25 321.05 35.65 321.85 35.65 322.5 35.65 322.95 35.4 323.45 35.15 323.85 34.75 324.25 34.25 324.85 33.9 325.45 33.55 326.35 33.55 327.1 33.55 327.55 33.7 328.05 33.95 328.3 34.3 328.55 34.65 328.55 35.1 328.55 35.7 328.05 36 327.55 36.3 326.75 36.45
M 328.55 38.9
L 328.55 39.95
Q 328.55 40.95 328.1 41.65 327.65 42.4 326.85 42.75 326.05 43.15 325.1 43.15 324 43.15 323.45 42.7 322.9 42.25 322.9 41.5 322.9 40.85 323.4 40.35 323.95 39.9 325.3 39.65 325.9 39.5 326.45 39.4 327 39.35 327.5 39.25 328.05 39.1 328.4 38.85 328.45 38.8 328.5 38.8 328.55 38.8 328.55 38.9
M 341.4 35.75
Q 341.75 35 342.45 34.6 343.15 34.15 344.3 34.15 345.3 34.15 345.9 33.6 346.5 33 346.5 32.2 346.5 31.25 345.9 30.7 345.35 30.2 344.35 30.2 343.45 30.2 342.65 30.7 341.9 31.2 341.35 31.95 341.2 32.15 341.05 32.4
L 341.05 32.35
Q 341.05 31.55 340.55 30.95 340 30.35 339.1 30.35 338.25 30.35 337.65 30.95 337.05 31.5 337.05 32.35
L 337.05 44.4
Q 337.05 45.25 337.65 45.8 338.2 46.4 339.05 46.4 339.85 46.4 340.45 45.8 341.05 45.25 341.05 44.4
L 341.05 37.45
Q 341.05 36.5 341.4 35.75 Z"/>
</g>

<g id="Layer0_1_FILL">
<path fill="#FFFFFF" stroke="none" d="
M 19.4 2.6
Q 18.8 2 18 2
L 6 2
Q 5.15 2 4.55 2.6 4 3.15 4 4
L 4 20
Q 4 20.9 4.55 21.45 5.1 22 6 22
L 18 22
Q 18.85 22 19.4 21.45 20 20.85 20 20
L 20 4
Q 20 3.2 19.4 2.6
M 16 4
L 18 4 18 20 6 20 6 4 11 4 11 10.15
Q 11 10.5 11.25 10.6 11.45 10.75 11.75 10.55
L 13 9.8
Q 13.25 9.65 13.5 9.65 13.8 9.65 14 9.8
L 15.25 10.55
Q 15.5 10.7 15.75 10.6 16 10.45 16 10.15
L 16 4 Z"/>
</g>
</defs>

<g transform="matrix( 1, 0, 0, 1, 105.5,-146.5) ">
<use xlink:href="#Layer1_0_FILL"/>
</g>

<g transform="matrix( 1, 0, 0, 1, 30.2,-5.35) ">
<use xlink:href="#Layer0_0_FILL"/>
</g>

<g transform="matrix( 1.7999725341796875, 0, 0, 1.7999725341796875, 116.1,9.4) ">
<use xlink:href="#Layer0_1_FILL"/>
</g>
</svg>
