
<svg xmlns="http://www.w3.org/2000/svg" version="1.1" xmlns:xlink="http://www.w3.org/1999/xlink" preserveAspectRatio="none" x="0px" y="0px" width="500px" height="62px" viewBox="0 0 500 62">
<defs>
<g id="Layer0_0_FILL">
<path fill="#FFFFFF" stroke="none" d="
M 123.5 33.85
Q 123.5 33.05 122.95 32.5 122.4 31.95 121.6 31.95 120.85 31.95 120.3 32.5 119.7 33.05 119.7 33.85
L 119.7 42.55 117.25 40.1
Q 116.7 39.55 115.95 39.55 115.15 39.55 114.6 40.1 114.05 40.65 114.05 41.4 114.05 42.2 114.6 42.75
L 120.3 48.45 120.45 48.6
Q 120.9185546875 48.9595703125 121.45 49
L 121.6 49
Q 122 49 122.35 48.85 122.6765625 48.71015625 122.9 48.45
L 128.65 42.75
Q 129.2 42.2 129.2 41.45 129.2 40.65 128.65 40.1 128.1 39.55 127.3 39.55 126.5 39.55 125.95 40.1
L 123.5 42.55 123.5 33.85
M 141.6 24.6
Q 140.3 23.05 138.6 22.05 136.8 21.05 134.8 20.75 132.8 17.2 129.25 15.1 125.7 13 121.6 13 117.55 13 113.95 15.1 110.45 17.2 108.45 20.75 106.4 21.05 104.65 22.1 102.95 23.05 101.65 24.6 100.35 26.1 99.65 27.95 98.9 29.9 98.9 31.95 98.9 34.25 99.8 36.4 100.65 38.4 102.25 40 103.8 41.55 105.85 42.45 107.95 43.3 110.25 43.3 111.05 43.3 111.6 42.75 112.15 42.2 112.15 41.45 112.15 40.65 111.6 40.1 111.05 39.55 110.25 39.55 108.75 39.55 107.3 38.95 105.95 38.35 104.9 37.3 103.85 36.25 103.3 34.9 102.7 33.5 102.7 31.95 102.7 30.5 103.25 29.15 103.75 27.8 104.75 26.8 105.7 25.75 107 25.1 108.3 24.5 109.75 24.4
L 110.9 24.35 111.35 23.3
Q 112.75 20.35 115.55 18.55 118.35 16.8 121.6 16.8 124.9 16.8 127.7 18.55 130.5 20.35 131.9 23.3
L 132.35 24.35 133.5 24.4
Q 134.95 24.5 136.25 25.1 137.55 25.75 138.5 26.75 139.5 27.8 140 29.1 140.55 30.5 140.55 31.95 140.55 33.5 139.95 34.9 139.4 36.25 138.35 37.3 137.3 38.35 135.95 38.95 134.5 39.5 133 39.5 132.2 39.5 131.65 40.1 131.1 40.65 131.1 41.4 131.1 42.2 131.65 42.75 132.2 43.3 133 43.3 135.3 43.3 137.4 42.4 139.45 41.55 141 40 142.6 38.4 143.45 36.35 144.35 34.25 144.35 31.95 144.35 29.9 143.6 27.95 142.9 26.1 141.6 24.6
M 198.6 22.5
Q 198.6 21.35 198.05 20.8 197.45 20.2 196.45 20.2 195.55 20.2 195 20.6 194.45 21 194.2 21.55
L 188.2 36.3 182.15 21.55
Q 181.9 21 181.35 20.6 180.8 20.2 179.9 20.2 178.9 20.2 178.3 20.75 177.7 21.35 177.7 22.5
L 177.6 39.75
Q 177.6 40.65 178.2 41.2 178.75 41.8 179.65 41.8 180.6 41.8 181.2 41.2 181.8 40.65 181.75 39.75
L 181.55 29.7 185.8 39.95
Q 186.25 40.95 186.85 41.4 187.5 41.8 188.2 41.8 188.95 41.8 189.55 41.4 190.15 40.95 190.6 39.95
L 194.8 29.75 194.6 39.75
Q 194.6 40.65 195.2 41.2 195.8 41.8 196.65 41.8 197.6 41.8 198.15 41.2 198.75 40.65 198.75 39.75
L 198.6 22.5
M 239.85 27.95
Q 239.75 27.15 239.15 26.6 238.6 26.05 237.65 26.05
L 229.9 26.05
Q 229.05 26.05 228.5 26.6 227.9 27.15 227.9 27.9 227.9 28.7 228.5 29.2 229.05 29.75 229.9 29.75
L 234.35 29.75 228.2 38.1
Q 227.7 38.8 227.8 39.6 227.9 40.4 228.5 40.95 229.05 41.5 229.95 41.5
L 238.35 41.5
Q 239.2 41.5 239.8 40.95 240.4 40.35 240.4 39.6 240.4 38.85 239.8 38.3 239.2 37.8 238.35 37.8
L 233.35 37.8 239.4 29.5
Q 239.95 28.75 239.85 27.95
M 215.2 28.4
Q 214.5 27.1 213.15 26.35 211.75 25.65 209.7 25.65 208.4 25.65 207.25 25.95 206.1 26.25 205.25 26.8 204.4 27.35 203.95 28 203.45 28.7 203.45 29.45 203.45 30.2 203.95 30.65 204.45 31.05 205.25 31.05 205.9 31.05 206.35 30.8 206.85 30.55 207.25 30.15 207.65 29.65 208.25 29.3 208.85 28.95 209.75 28.95 210.5 28.95 210.95 29.1 211.45 29.35 211.7 29.7 211.95 30.05 211.95 30.5 211.95 31.1 211.45 31.4 210.95 31.7 210.15 31.85 209.35 31.95 208.35 32.1 205.15 32.6 203.7 33.85 202.3 35.1 202.3 37.25 202.3 38.8 203.05 39.85 203.8 40.85 205.05 41.4 206.25 41.95 207.65 41.95 209.5 41.95 210.6 41.3 211.7 40.65 212.55 39.45
L 212.6 39.45 212.65 39.65
Q 212.85 40.6 213.5 41.2 214.2 41.75 215.4 41.8 216.5 41.85 217.1 41.25 217.7 40.7 217.7 39.85 217.7 39.15 217.25 38.75 216.85 38.3 216.35 38.15 216.1 38.05 216 37.9 215.9 37.8 215.9 37.4
L 215.9 31.45
Q 215.9 29.75 215.2 28.4
M 206.3 36.9
Q 206.3 36.25 206.8 35.75 207.35 35.3 208.7 35.05 209.3 34.9 209.85 34.8 210.4 34.75 210.9 34.65 211.45 34.5 211.8 34.25 211.85 34.2 211.9 34.2 211.95 34.2 211.95 34.3
L 211.95 35.35
Q 211.95 36.35 211.5 37.05 211.05 37.8 210.25 38.15 209.45 38.55 208.5 38.55 207.4 38.55 206.85 38.1 206.3 37.65 206.3 36.9
M 224.45 21.6
Q 224.45 20.75 223.85 20.15 223.3 19.6 222.45 19.6 221.6 19.6 221 20.15 220.45 20.75 220.45 21.6
L 220.45 39.75
Q 220.45 40.65 221 41.2 221.6 41.8 222.45 41.8 223.3 41.8 223.85 41.2 224.45 40.65 224.45 39.75
L 224.45 21.6
M 256.8 30.1
Q 256.3 28.9 255.35 27.9 254.45 26.85 253.1 26.25 251.75 25.6 250.1 25.6 247.85 25.6 246.2 26.7 244.55 27.8 243.7 29.65 242.8 31.55 242.8 33.85 242.8 36.3 243.75 38.15 244.75 39.95 246.45 40.95 248.15 41.95 250.3 41.95 251.7 41.95 252.9 41.6 254.05 41.3 254.95 40.75 255.8 40.2 256.3 39.5 256.8 38.85 256.8 38.1 256.8 37.25 256.3 36.75 255.8 36.25 255 36.25 254.4 36.25 254.05 36.5 253.65 36.75 253.35 37.05 252.9 37.6 252.3 38 251.7 38.4 250.7 38.4 249.75 38.4 249 38 248.25 37.65 247.7 36.9 247.15 36.1 246.95 34.9
L 254.9 34.9
Q 256.15 34.9 256.7 34.25 257.25 33.6 257.25 32.5 257.25 31.3 256.8 30.1
M 248 29.85
Q 248.85 29.15 250.15 29.15 251.4 29.15 252.25 29.9 253.05 30.65 253.25 32.15
L 246.95 32.15
Q 247.2 30.6 248 29.85
M 315.55 26.1
Q 315.05 26.45 314.85 27
L 311.5 35.75 308.15 27.2
Q 307.9 26.55 307.4 26.15 306.9 25.75 306.25 25.75 305.5 25.75 305 26.2 304.55 26.7 304.4 27.3 304.2 27.95 304.4 28.55
L 309.35 40.95 308.35 43.6
Q 308.3 43.85 308.15 44 308.05 44.15 307.8 44.15 307.7 44.15 307.5 44.05 307.3 43.95 307.15 43.75 306.95 43.5 306.65 43.25 306.35 43 305.65 43 304.8 43 304.3 43.5 303.8 43.95 303.8 44.75 303.8 45.5 304.3 46.25 304.85 47 305.8 47.45 306.75 47.9 308.05 47.9 309.7 47.9 310.6 47.05 311.5 46.15 312.25 44.3
L 318.55 28.45
Q 318.75 27.9 318.6 27.25 318.45 26.6 317.95 26.2 317.5 25.75 316.75 25.75 316.05 25.75 315.55 26.1
M 283.5 41.2
Q 284.1 40.65 284.1 39.8
L 284.1 31.75
Q 284.1 29.75 283.35 28.4 282.65 27 281.35 26.3 280.05 25.6 278.35 25.6 277.25 25.6 276.2 25.95 275.2 26.25 274.3 27.1 273.85 27.5 273.45 28.15 272.85 27.2 271.9 26.55 270.5 25.6 268.75 25.6 267.8 25.6 266.85 25.95 265.9 26.3 265.15 27.05 264.8 27.35 264.5 27.75
L 264.5 27.65
Q 264.5 26.9 263.95 26.3 263.45 25.75 262.55 25.75 261.7 25.75 261.15 26.35 260.55 26.9 260.55 27.75
L 260.55 39.8
Q 260.55 40.65 261.15 41.2 261.7 41.8 262.55 41.8 263.35 41.8 263.95 41.2 264.55 40.65 264.55 39.8
L 264.55 32.6
Q 264.55 31.5 264.9 30.8 265.3 30.05 266.05 29.7 266.75 29.35 267.7 29.35 269.05 29.35 269.75 30.1 270.5 30.9 270.5 32.3
L 270.5 39.8
Q 270.5 40.65 271.05 41.2 271.65 41.8 272.45 41.8 273.3 41.8 273.9 41.2 274.5 40.65 274.5 39.8
L 274.5 32.3
Q 274.5 31.4 274.8 30.7 275.15 30.05 275.8 29.7 276.4 29.35 277.35 29.35 278.65 29.35 279.4 30.05 280.1 30.8 280.1 32.3
L 280.1 39.8
Q 280.1 40.65 280.7 41.2 281.3 41.8 282.1 41.8 282.95 41.8 283.5 41.2
M 301.25 30.1
Q 300.75 28.9 299.8 27.9 298.9 26.85 297.55 26.25 296.2 25.6 294.55 25.6 292.3 25.6 290.65 26.7 289 27.8 288.15 29.65 287.25 31.55 287.25 33.85 287.25 36.3 288.2 38.15 289.2 39.95 290.9 40.95 292.6 41.95 294.75 41.95 296.15 41.95 297.35 41.6 298.5 41.3 299.4 40.75 300.25 40.2 300.75 39.5 301.25 38.85 301.25 38.1 301.25 37.25 300.75 36.75 300.25 36.25 299.45 36.25 298.85 36.25 298.5 36.5 298.1 36.75 297.8 37.05 297.35 37.6 296.75 38 296.15 38.4 295.15 38.4 294.2 38.4 293.45 38 292.7 37.65 292.15 36.9 291.6 36.1 291.4 34.9
L 299.35 34.9
Q 300.6 34.9 301.15 34.25 301.7 33.6 301.7 32.5 301.7 31.3 301.25 30.1
M 294.6 29.15
Q 295.85 29.15 296.7 29.9 297.5 30.65 297.7 32.15
L 291.4 32.15
Q 291.65 30.6 292.45 29.85 293.3 29.15 294.6 29.15
M 356.45 30.2
Q 357.2 31.05 357.2 32.45
L 357.2 39.8
Q 357.2 40.65 357.75 41.25 358.35 41.8 359.2 41.8 360.05 41.8 360.65 41.25 361.2 40.65 361.2 39.8
L 361.2 31.75
Q 361.2 29.75 360.5 28.4 359.75 27 358.5 26.3 357.2 25.6 355.6 25.6 353.8 25.6 352.55 26.5 351.75 27 351.1 27.9
L 351.1 27.75
Q 351.1 26.9 350.5 26.35 349.9 25.75 349.1 25.75 348.25 25.75 347.65 26.3 347.1 26.9 347.1 27.75
L 347.1 39.8
Q 347.1 40.65 347.65 41.25 348.25 41.8 349.1 41.8 349.95 41.8 350.5 41.25 351.1 40.65 351.1 39.8
L 351.1 32.6
Q 351.1 31.7 351.45 30.95 351.85 30.2 352.6 29.75 353.3 29.35 354.35 29.35 355.7 29.35 356.45 30.2
M 325.7 39.8
L 325.7 27.75
Q 325.7 26.9 325.1 26.35 324.5 25.75 323.7 25.75 322.85 25.75 322.3 26.35 321.7 26.9 321.7 27.75
L 321.7 39.8
Q 321.7 40.6 322.3 41.2 322.85 41.8 323.7 41.8 324.5 41.8 325.1 41.2 325.7 40.6 325.7 39.8
M 339.05 20.8
Q 338.45 21.35 338.45 22.25
L 338.45 39.75
Q 338.45 40.65 339.05 41.2 339.6 41.8 340.5 41.8 341.45 41.8 342 41.2 342.6 40.65 342.6 39.75
L 342.6 22.25
Q 342.6 21.35 342 20.8 341.45 20.2 340.5 20.2 339.6 20.2 339.05 20.8
M 342.05 18.1
Q 342.65 17.5 342.65 16.4 342.65 15.35 342.05 14.7 341.45 14.1 340.5 14.1 339.55 14.1 338.95 14.7 338.35 15.35 338.35 16.4 338.35 17.5 338.95 18.1 339.55 18.7 340.5 18.7 341.45 18.7 342.05 18.1
M 325.25 23.6
Q 325.85 23 325.85 21.9 325.85 20.85 325.25 20.2 324.65 19.6 323.7 19.6 322.75 19.6 322.15 20.2 321.55 20.85 321.55 21.9 321.55 23 322.15 23.6 322.75 24.2 323.7 24.2 324.65 24.2 325.25 23.6
M 401.15 27.6
Q 401.15 26.65 400.55 26.1 400 25.6 399 25.6 398.1 25.6 397.3 26.1 396.55 26.6 396 27.35 395.85 27.55 395.7 27.8
L 395.7 27.75
Q 395.7 26.95 395.2 26.35 394.65 25.75 393.75 25.75 392.9 25.75 392.3 26.35 391.7 26.9 391.7 27.75
L 391.7 39.8
Q 391.7 40.65 392.3 41.2 392.85 41.8 393.7 41.8 394.5 41.8 395.1 41.2 395.7 40.65 395.7 39.8
L 395.7 32.85
Q 395.7 31.9 396.05 31.15 396.4 30.4 397.1 30 397.8 29.55 398.95 29.55 399.95 29.55 400.55 29 401.15 28.4 401.15 27.6
M 384.1 26.35
Q 383.5 26.9 383.5 27.75
L 383.5 39.8
Q 383.5 40.6 384.1 41.2 384.65 41.8 385.5 41.8 386.3 41.8 386.9 41.2 387.5 40.6 387.5 39.8
L 387.5 27.75
Q 387.5 26.9 386.9 26.35 386.3 25.75 385.5 25.75 384.65 25.75 384.1 26.35
M 375.9 20.15
Q 375.3 20.75 375.3 21.6
L 375.3 27.45
Q 375 27.1 374.65 26.85 373.95 26.25 373.05 25.9 372.15 25.6 371.05 25.6 369.1 25.6 367.55 26.65 366.05 27.7 365.2 29.5 364.35 31.35 364.35 33.75 364.35 36.15 365.2 38 366.05 39.85 367.55 40.9 369.05 41.95 371.05 41.95 372.4 41.95 373.4 41.4 374.4 40.85 375.05 40.05 375.2 39.9 375.35 39.7 375.4 40.5 375.9 41.1 376.45 41.8 377.3 41.8 378.2 41.8 378.75 41.2 379.3 40.65 379.3 39.75
L 379.3 21.6
Q 379.3 20.75 378.75 20.15 378.2 19.6 377.3 19.6 376.45 19.6 375.9 20.15
M 368.4 33.8
Q 368.4 31.65 369.4 30.45 370.3 29.2 371.95 29.2 373.6 29.2 374.55 30.45 375.45 31.7 375.45 33.8 375.45 35.95 374.5 37.15 373.55 38.3 372 38.35 370.3 38.35 369.4 37.15 368.4 35.95 368.4 33.8
M 385.5 24.2
Q 386.45 24.2 387.05 23.6 387.65 23 387.65 21.9 387.65 20.85 387.05 20.2 386.45 19.6 385.5 19.6 384.55 19.6 383.95 20.2 383.35 20.85 383.35 21.9 383.35 23 383.95 23.6 384.55 24.2 385.5 24.2 Z"/>
</g>
</defs>

<g transform="matrix( 1, 0, 0, 1, 0,0) ">
<use xlink:href="#Layer0_0_FILL"/>
</g>
</svg>
