
<svg xmlns="http://www.w3.org/2000/svg" version="1.1" xmlns:xlink="http://www.w3.org/1999/xlink" preserveAspectRatio="none" x="0px" y="0px" width="500px" height="62px" viewBox="0 0 500 62">
<defs>
<g id="Layer0_0_FILL">
<path fill="#FFFFFF" stroke="none" d="
M 188.9 18.8
Q 188.9 17.65 188.35 17.1 187.75 16.5 186.75 16.5 185.85 16.5 185.3 16.9 184.75 17.3 184.5 17.85
L 178.5 32.6 172.45 17.85
Q 172.2 17.3 171.65 16.9 171.1 16.5 170.2 16.5 169.2 16.5 168.6 17.05 168 17.65 168 18.8
L 167.9 36.05
Q 167.9 36.95 168.5 37.5 169.05 38.1 169.95 38.1 170.9 38.1 171.5 37.5 172.1 36.95 172.05 36.05
L 171.85 26 176.1 36.25
Q 176.55 37.25 177.15 37.7 177.8 38.1 178.5 38.1 179.25 38.1 179.85 37.7 180.45 37.25 180.9 36.25
L 185.1 26.05 184.9 36.05
Q 184.9 36.95 185.5 37.5 186.1 38.1 186.95 38.1 187.9 38.1 188.45 37.5 189.05 36.95 189.05 36.05
L 188.9 18.8
M 214.75 17.9
Q 214.75 17.05 214.15 16.45 213.6 15.9 212.75 15.9 211.9 15.9 211.3 16.45 210.75 17.05 210.75 17.9
L 210.75 36.05
Q 210.75 36.95 211.3 37.5 211.9 38.1 212.75 38.1 213.6 38.1 214.15 37.5 214.75 36.95 214.75 36.05
L 214.75 17.9
M 205.5 24.7
Q 204.8 23.4 203.45 22.65 202.05 21.95 200 21.95 198.7 21.95 197.55 22.25 196.4 22.55 195.55 23.1 194.7 23.65 194.25 24.3 193.75 25 193.75 25.75 193.75 26.5 194.25 26.95 194.75 27.35 195.55 27.35 196.2 27.35 196.65 27.1 197.15 26.85 197.55 26.45 197.95 25.95 198.55 25.6 199.15 25.25 200.05 25.25 200.8 25.25 201.25 25.4 201.75 25.65 202 26 202.25 26.35 202.25 26.8 202.25 27.4 201.75 27.7 201.25 28 200.45 28.15 199.65 28.25 198.65 28.4 195.45 28.9 194 30.15 192.6 31.4 192.6 33.55 192.6 35.1 193.35 36.15 194.1 37.15 195.35 37.7 196.55 38.25 197.95 38.25 199.8 38.25 200.9 37.6 202 36.95 202.85 35.75
L 202.9 35.75 202.95 35.95
Q 203.15 36.9 203.8 37.5 204.5 38.05 205.7 38.1 206.8 38.15 207.4 37.55 208 37 208 36.15 208 35.45 207.55 35.05 207.15 34.6 206.65 34.45 206.4 34.35 206.3 34.2 206.2 34.1 206.2 33.7
L 206.2 27.75
Q 206.2 26.05 205.5 24.7
M 202.1 30.55
Q 202.15 30.5 202.2 30.5 202.25 30.5 202.25 30.6
L 202.25 31.65
Q 202.25 32.65 201.8 33.35 201.35 34.1 200.55 34.45 199.75 34.85 198.8 34.85 197.7 34.85 197.15 34.4 196.6 33.95 196.6 33.2 196.6 32.55 197.1 32.05 197.65 31.6 199 31.35 199.6 31.2 200.15 31.1 200.7 31.05 201.2 30.95 201.75 30.8 202.1 30.55
M 230.15 24.25
Q 230.05 23.45 229.45 22.9 228.9 22.35 227.95 22.35
L 220.2 22.35
Q 219.35 22.35 218.8 22.9 218.2 23.45 218.2 24.2 218.2 25 218.8 25.5 219.35 26.05 220.2 26.05
L 224.65 26.05 218.5 34.4
Q 218 35.1 218.1 35.9 218.2 36.7 218.8 37.25 219.35 37.8 220.25 37.8
L 228.65 37.8
Q 229.5 37.8 230.1 37.25 230.7 36.65 230.7 35.9 230.7 35.15 230.1 34.6 229.5 34.1 228.65 34.1
L 223.6 34.1 229.7 25.8
Q 230.25 25.05 230.15 24.25
M 245.65 24.2
Q 244.75 23.15 243.4 22.55 242.05 21.9 240.4 21.9 238.15 21.9 236.5 23 234.85 24.1 234 25.95 233.1 27.85 233.1 30.15 233.1 32.6 234.05 34.45 235.05 36.25 236.75 37.25 238.45 38.25 240.6 38.25 242 38.25 243.2 37.9 244.35 37.6 245.25 37.05 246.1 36.5 246.6 35.8 247.1 35.15 247.1 34.4 247.1 33.55 246.6 33.05 246.1 32.55 245.3 32.55 244.7 32.55 244.35 32.8 243.95 33.05 243.65 33.35 243.2 33.9 242.6 34.3 242 34.7 241 34.7 240.05 34.7 239.3 34.3 238.55 33.95 238 33.2 237.45 32.4 237.25 31.2
L 245.2 31.2
Q 246.45 31.2 247 30.55 247.55 29.9 247.55 28.8 247.55 27.6 247.1 26.4 246.6 25.2 245.65 24.2
M 240.45 25.45
Q 241.7 25.45 242.55 26.2 243.35 26.95 243.55 28.45
L 237.25 28.45
Q 237.5 26.9 238.3 26.15 239.15 25.45 240.45 25.45
M 273.65 24.7
Q 272.95 23.3 271.65 22.6 270.35 21.9 268.65 21.9 267.55 21.9 266.5 22.25 265.5 22.55 264.6 23.4 264.1501953125 23.8248046875 263.7 24.4 263.1271484375 23.4791015625 262.2 22.85 260.8 21.9 259.05 21.9 258.1 21.9 257.15 22.25 256.2 22.6 255.45 23.35 255.105859375 23.6537109375 254.8 24
L 254.8 23.95
Q 254.8 23.2 254.25 22.6 253.75 22.05 252.85 22.05 252 22.05 251.45 22.65 250.85 23.2 250.85 24.05
L 250.85 36.1
Q 250.85 36.95 251.45 37.5 252 38.1 252.85 38.1 253.65 38.1 254.25 37.5 254.85 36.95 254.85 36.1
L 254.85 28.9
Q 254.85 27.8 255.2 27.1 255.6 26.35 256.35 26 257.05 25.65 258 25.65 259.35 25.65 260.05 26.4 260.8 27.2 260.8 28.6
L 260.8 36.1
Q 260.8 36.95 261.35 37.5 261.95 38.1 262.75 38.1 263.6 38.1 264.2 37.5 264.8 36.95 264.8 36.1
L 264.8 28.6
Q 264.8 27.7 265.1 27 265.45 26.35 266.1 26 266.7 25.65 267.65 25.65 268.95 25.65 269.7 26.35 270.4 27.1 270.4 28.6
L 270.4 36.1
Q 270.4 36.95 271 37.5 271.6 38.1 272.4 38.1 273.25 38.1 273.8 37.5 274.4 36.95 274.4 36.1
L 274.4 28.05
Q 274.4 26.05 273.65 24.7
M 287.85 22.55
Q 286.5 21.9 284.85 21.9 282.6 21.9 280.95 23 279.3 24.1 278.45 25.95 277.55 27.85 277.55 30.15 277.55 32.6 278.5 34.45 279.5 36.25 281.2 37.25 282.9 38.25 285.05 38.25 286.45 38.25 287.65 37.9 288.8 37.6 289.7 37.05 290.55 36.5 291.05 35.8 291.55 35.15 291.55 34.4 291.55 33.55 291.05 33.05 290.55 32.55 289.75 32.55 289.15 32.55 288.8 32.8 288.4 33.05 288.1 33.35 287.65 33.9 287.05 34.3 286.45 34.7 285.45 34.7 284.5 34.7 283.75 34.3 283 33.95 282.45 33.2 281.9 32.4 281.7 31.2
L 289.65 31.2
Q 290.9 31.2 291.45 30.55 292 29.9 292 28.8 292 27.6 291.55 26.4 291.05 25.2 290.1 24.2 289.2 23.15 287.85 22.55
M 284.9 25.45
Q 286.15 25.45 287 26.2 287.8 26.95 288 28.45
L 281.7 28.45
Q 281.95 26.9 282.75 26.15 283.6 25.45 284.9 25.45
M 317.7 19.8
Q 318.1 19.25 318.1 18.55 318.1 17.75 317.5 17.1 316.85 16.5 316.05 16.5 315 16.5 314.4 17.35
L 309.8 23.85 305.5 17.35
Q 304.95 16.5 303.8 16.5 302.95 16.5 302.35 17.1 301.75 17.7 301.75 18.55 301.75 19.2 302.1 19.75
L 307.65 28.05 307.65 36.05
Q 307.65 36.9 308.25 37.5 308.85 38.1 309.75 38.1 310.6 38.1 311.2 37.5 311.8 36.9 311.8 36.05
L 311.8 28.1 317.7 19.8
M 331.1 23
Q 329.4 21.9 327.1 21.9 324.85 21.9 323.15 23 321.45 24.05 320.5 25.9 319.55 27.7 319.55 30.05 319.55 32.35 320.5 34.25 321.45 36.1 323.15 37.2 324.85 38.25 327.1 38.25 329.4 38.25 331.1 37.2 332.8 36.1 333.75 34.25 334.7 32.35 334.7 30.05 334.7 27.7 333.75 25.9 332.8 24.05 331.1 23
M 327.1 34.6
Q 325.45 34.6 324.55 33.45 323.65 32.3 323.65 30.05 323.65 27.85 324.55 26.7 325.45 25.5 327.1 25.5 328.75 25.5 329.65 26.7 330.6 27.85 330.6 30.05 330.6 32.3 329.65 33.45 328.75 34.6 327.1 34.6
M 351.3 24.05
Q 351.3 23.2 350.7 22.65 350.15 22.1 349.3 22.1 348.55 22.1 348 22.55
L 342 27.4 342 17.9
Q 342 17.05 341.4 16.5 340.8 15.9 340 15.9 339.15 15.9 338.6 16.5 338 17.05 338 17.9
L 338 36.1
Q 338 36.95 338.6 37.5 339.15 38.1 340 38.1 340.8 38.1 341.4 37.5 342 36.95 342 36.1
L 342 32.55 343.8 31.1 348 37.25
Q 348.3 37.6 348.75 37.85 349.15 38.1 349.65 38.1 350.5 38.1 351.05 37.5 351.65 36.95 351.65 36.1 351.65 35.45 351.25 34.95
L 346.8 28.6 350.55 25.6
Q 351.3 25 351.3 24.05 Z"/>
</g>

<g id="Layer0_1_FILL">
<path fill="#FFFFFF" stroke="none" d="
M 20.4 20.45
Q 21 19.85 21 19
L 21 5
Q 21 4.2 20.4 3.6 19.8 3 19 3
L 5 3
Q 4.15 3 3.55 3.6 3 4.15 3 5
L 3 19
Q 3 19.9 3.55 20.45 4.1 21 5 21
L 19 21
Q 19.85 21 20.4 20.45
M 18 9
Q 17.6 9 17.3 9.3
L 14 12.6 10.7 9.3
Q 10.4 9 10 9 9.6 9 9.3 9.3
L 6 12.6 5 11.6 5 5 19 5 19 9.6 18.7 9.3
Q 18.4 9 18 9
M 5 19
L 5 14.4 5.3 14.7
Q 5.6 15 6 15 6.4 15 6.7 14.7
L 10 11.4 13.3 14.7
Q 13.6 15 14 15 14.4 15 14.7 14.7
L 18 11.4 19 12.4 19 19 5 19 Z"/>
</g>
</defs>

<g transform="matrix( 1, 0, 0, 1, 27,3.95) ">
<use xlink:href="#Layer0_0_FILL"/>
</g>

<g transform="matrix( 1.9444427490234375, 0, 0, 1.9444427490234375, 115.55,7.9) ">
<use xlink:href="#Layer0_1_FILL"/>
</g>
</svg>
