
<svg xmlns="http://www.w3.org/2000/svg" version="1.1" xmlns:xlink="http://www.w3.org/1999/xlink" preserveAspectRatio="none" x="0px" y="0px" width="500px" height="62px" viewBox="0 0 500 62">
<defs>
<g id="Layer0_0_FILL">
<path fill="#FFFFFF" stroke="none" d="
M 127.65 24
Q 126.1 20.65 123.8 18.3 121.35 15.95 118 14.45 114.6 13 111 13 107.55 13 103.95 14.45 100.65 15.95 98.3 18.3 95.95 20.65 94.45 24 93 27.6 93 31 93 34.6 94.45 38 95.85 41.45 98.3 43.8 100.65 46.1 103.95 47.65 107.3 49 111 49 114.8 49 118 47.65 121.35 46.2 123.8 43.8 126.1 41.45 127.65 38 129 34.8 129 31 129 27.4 127.65 24
M 111 16.6
Q 117.05 16.6 121.25 20.85 125.4 24.95 125.4 31 125.4 37.1 121.25 41.25 117.1 45.4 111 45.4 104.95 45.4 100.8 41.25 96.6 37.05 96.6 31 96.6 25.05 100.8 20.85 105.05 16.6 111 16.6
M 116.4 32.8
Q 117.3 32.8 117.75 32.35 118.2 31.9 118.2 31 118.2 30.2 117.75 29.75 117.2 29.2 116.4 29.2
L 110.65 29.2 112.25 27.6
Q 112.8 27.2 112.8 26.3 112.8 25.6 112.25 25.05 111.8 24.6 111 24.6 110.35 24.6 109.75 25.05
L 105.05 29.75
Q 104.5 30.3 104.5 31 104.5 31.7 105.05 32.25
L 109.75 36.95
Q 110.25 37.5 111 37.5 111.8 37.5 112.25 36.95 112.8 36.6 112.8 35.7 112.8 34.95 112.25 34.4
L 110.65 32.8 116.4 32.8 Z"/>
</g>

<g id="Layer0_1_FILL">
<path fill="#FFFFFF" stroke="none" d="
M 198.4 29.4
Q 197.45 27.55 195.75 26.5 194.05 25.4 191.75 25.4 189.5 25.4 187.8 26.5 186.1 27.55 185.15 29.4 184.2 31.2 184.2 33.55 184.2 35.85 185.15 37.75 186.1 39.6 187.8 40.7 189.5 41.75 191.75 41.75 194.05 41.75 195.75 40.7 197.45 39.6 198.4 37.75 199.35 35.85 199.35 33.55 199.35 31.2 198.4 29.4
M 194.3 30.2
Q 195.25 31.35 195.25 33.55 195.25 35.8 194.3 36.95 193.4 38.1 191.75 38.1 190.1 38.1 189.2 36.95 188.3 35.8 188.3 33.55 188.3 31.35 189.2 30.2 190.1 29 191.75 29 193.4 29 194.3 30.2
M 171.05 20.55
Q 169.5 21.2 168.6 22.5 167.75 23.85 167.75 25.8 167.75 27.45 168.25 28.55 168.85 29.65 169.75 30.35 170.65 31.05 171.75 31.5 172.8 32 173.85 32.4 175.1 32.9 175.95 33.3 176.85 33.7 177.3 34.25 177.8 34.8 177.8 35.65 177.8 36.5 177.3 37.05 176.85 37.6 176.1 37.8 175.35 38.05 174.45 38.05 172.9 38.05 171.95 37.45 171.05 36.85 170.55 36.05 170.15 35.5 169.8 35.05 169.45 34.6 168.6 34.6 167.7 34.6 167.15 35.1 166.65 35.65 166.65 36.5 166.65 37.9 167.65 39.05 168.7 40.25 170.5 41 172.3 41.75 174.6 41.75 176.7 41.75 178.35 41.05 180 40.3 180.95 38.9 181.9 37.5 181.9 35.45 181.9 33.95 181.4 32.95 180.95 31.9 180.1 31.2 179.25 30.45 178.15 29.95 177.05 29.4 175.85 28.9 174.8 28.5 173.9 28.05 172.95 27.65 172.4 27.1 171.85 26.5 171.85 25.6 171.85 24.95 172.2 24.5 172.55 24.05 173.15 23.8 173.75 23.6 174.5 23.6 175.7 23.6 176.35 24 177 24.4 177.4 25.15 177.8 25.65 178.1 25.9 178.45 26.15 179.1 26.15 179.95 26.15 180.45 25.6 181 25.05 181 24.2 180.95 23.3 180.45 22.5 179.95 21.75 179.1 21.15 178.2 20.55 177.05 20.2 175.85 19.85 174.45 19.85 172.55 19.85 171.05 20.55
M 221.4 26.15
Q 220.8 26.7 220.8 27.55
L 220.8 39.6
Q 220.8 40.45 221.4 41 221.95 41.6 222.8 41.6 223.6 41.6 224.2 41 224.8 40.45 224.8 39.6
L 224.8 32.65
Q 224.8 31.7 225.15 30.95 225.5 30.2 226.2 29.8 226.9 29.35 228.05 29.35 229.05 29.35 229.65 28.8 230.25 28.2 230.25 27.4 230.25 26.45 229.65 25.9 229.1 25.4 228.1 25.4 227.2 25.4 226.4 25.9 225.65 26.4 225.1 27.15 224.9416015625 27.366015625 224.8 27.55
L 224.8 27.55
Q 224.8 26.75 224.3 26.15 223.75 25.55 222.85 25.55 222 25.55 221.4 26.15
M 216.75 31.55
Q 216.75 29.55 216.05 28.2 215.3 26.8 214.05 26.1 212.75 25.4 211.15 25.4 209.35 25.4 208.1 26.3 207.32109375 26.8091796875 206.65 27.65
L 206.65 27.55
Q 206.65 26.7 206.05 26.15 205.45 25.55 204.65 25.55 203.8 25.55 203.2 26.1 202.65 26.7 202.65 27.55
L 202.65 39.6
Q 202.65 40.45 203.2 41.05 203.8 41.6 204.65 41.6 205.5 41.6 206.05 41.05 206.65 40.45 206.65 39.6
L 206.65 32.4
Q 206.65 31.5 207 30.75 207.4 30 208.15 29.55 208.85 29.15 209.9 29.15 211.25 29.15 212 30 212.75 30.85 212.75 32.25
L 212.75 39.6
Q 212.75 40.45 213.3 41.05 213.9 41.6 214.75 41.6 215.6 41.6 216.2 41.05 216.75 40.45 216.75 39.6
L 216.75 31.55
M 267.45 26.15
Q 266.85 26.7 266.85 27.55
L 266.85 39.6
Q 266.85 40.4 267.45 41 268 41.6 268.85 41.6 269.65 41.6 270.25 41 270.85 40.4 270.85 39.6
L 270.85 27.55
Q 270.85 26.7 270.25 26.15 269.65 25.55 268.85 25.55 268 25.55 267.45 26.15
M 245.65 31.25
Q 245.65 29.55 244.95 28.2 244.25 26.9 242.9 26.15 241.5 25.45 239.45 25.45 238.15 25.45 237 25.75 235.85 26.05 235 26.6 234.15 27.15 233.7 27.8 233.2 28.5 233.2 29.25 233.2 30 233.7 30.45 234.2 30.85 235 30.85 235.65 30.85 236.1 30.6 236.6 30.35 237 29.95 237.4 29.45 238 29.1 238.6 28.75 239.5 28.75 240.25 28.75 240.7 28.9 241.2 29.15 241.45 29.5 241.7 29.85 241.7 30.3 241.7 30.9 241.2 31.2 240.7 31.5 239.9 31.65 239.1 31.75 238.1 31.9 234.9 32.4 233.45 33.65 232.05 34.9 232.05 37.05 232.05 38.6 232.8 39.65 233.55 40.65 234.8 41.2 236 41.75 237.4 41.75 239.25 41.75 240.35 41.1 241.45 40.45 242.3 39.25
L 242.35 39.25 242.4 39.45
Q 242.6 40.4 243.25 41 243.95 41.55 245.15 41.6 246.25 41.65 246.85 41.05 247.45 40.5 247.45 39.65 247.45 38.95 247 38.55 246.6 38.1 246.1 37.95 245.85 37.85 245.75 37.7 245.65 37.6 245.65 37.2
L 245.65 31.25
M 236.05 36.7
Q 236.05 36.05 236.55 35.55 237.1 35.1 238.45 34.85 239.05 34.7 239.6 34.6 240.15 34.55 240.65 34.45 241.2 34.3 241.55 34.05 241.6 34 241.65 34 241.7 34 241.7 34.1
L 241.7 35.15
Q 241.7 36.15 241.25 36.85 240.8 37.6 240 37.95 239.2 38.35 238.25 38.35 237.15 38.35 236.6 37.9 236.05 37.45 236.05 36.7
M 254.2 21.4
Q 254.2 20.55 253.6 20 253 19.4 252.2 19.4 251.35 19.4 250.8 20 250.2 20.55 250.2 21.4
L 250.2 39.6
Q 250.2 40.45 250.8 41 251.35 41.6 252.2 41.6 253 41.6 253.6 41 254.2 40.45 254.2 39.6
L 254.2 36.05 256 34.6 260.2 40.75
Q 260.5 41.1 260.95 41.35 261.35 41.6 261.85 41.6 262.7 41.6 263.25 41 263.85 40.45 263.85 39.6 263.85 38.95 263.45 38.45
L 259 32.1 262.75 29.1
Q 263.5 28.5 263.5 27.55 263.5 26.7 262.9 26.15 262.35 25.6 261.5 25.6 260.75 25.6 260.2 26.05
L 254.2 30.9 254.2 21.4
M 267.3 23.4
Q 267.9 24 268.85 24 269.8 24 270.4 23.4 271 22.8 271 21.7 271 20.65 270.4 20 269.8 19.4 268.85 19.4 267.9 19.4 267.3 20 266.7 20.65 266.7 21.7 266.7 22.8 267.3 23.4
M 318.65 28.25
Q 318.85 27.7 318.7 27.05 318.55 26.4 318.05 26 317.6 25.55 316.85 25.55 316.15 25.55 315.65 25.9 315.15 26.25 314.95 26.8
L 311.6 35.55 308.25 27
Q 308 26.35 307.5 25.95 307 25.55 306.35 25.55 305.6 25.55 305.1 26 304.65 26.5 304.5 27.1 304.3 27.75 304.5 28.35
L 309.45 40.75 308.45 43.4
Q 308.4 43.65 308.25 43.8 308.15 43.95 307.9 43.95 307.8 43.95 307.6 43.85 307.4 43.75 307.25 43.55 307.05 43.3 306.75 43.05 306.45 42.8 305.75 42.8 304.9 42.8 304.4 43.3 303.9 43.75 303.9 44.55 303.9 45.3 304.4 46.05 304.95 46.8 305.9 47.25 306.85 47.7 308.15 47.7 309.8 47.7 310.7 46.85 311.6 45.95 312.35 44.1
L 318.65 28.25
M 296.85 21.25
Q 294.8 19.85 292.1 19.85 289.45 19.85 287.35 21.25 285.25 22.65 284.05 25.1 282.85 27.6 282.85 30.85 282.85 34.05 284.05 36.5 285.25 39 287.3 40.4 289.4 41.75 292.1 41.75 294.8 41.75 296.85 40.4 298.95 39 300.15 36.5 301.35 34.05 301.35 30.85 301.35 27.6 300.15 25.1 298.9 22.65 296.85 21.25
M 289.35 24.45
Q 290.5 23.6 292.1 23.6 293.7 23.6 294.85 24.45 295.95 25.3 296.55 26.95 297.15 28.6 297.15 30.85 297.15 33.1 296.55 34.7 295.95 36.3 294.85 37.15 293.7 38.05 292.1 38.05 290.5 38.05 289.35 37.15 288.2 36.3 287.6 34.7 287 33.1 287 30.85 287 28.6 287.6 26.95 288.2 25.3 289.35 24.45
M 335.75 27.4
Q 335.75 26.55 335.2 26 334.6 25.4 333.8 25.4 332.95 25.4 332.35 26 331.75 26.55 331.75 27.4
L 331.75 34.6
Q 331.75 35.5 331.35 36.2 331 36.95 330.25 37.4 329.55 37.85 328.5 37.85 327.25 37.85 326.4 37.25 325.6 36.65 325.6 35
L 325.6 27.4
Q 325.6 26.55 325.05 26 324.5 25.4 323.65 25.4 322.8 25.4 322.25 26 321.65 26.55 321.65 27.4
L 321.65 35.65
Q 321.65 37.55 322.25 38.85 322.9 40.2 324.1 40.9 325.35 41.6 327.25 41.6 329.05 41.6 330.35 40.7 331.0943359375 40.1640625 331.75 39.3
L 331.75 39.6
Q 331.75 40.4 332.35 41 332.95 41.55 333.8 41.55 334.6 41.55 335.2 41 335.75 40.4 335.75 39.6
L 335.75 27.4
M 343.95 27.65
L 343.95 27.55
Q 343.95 26.7 343.35 26.15 342.75 25.55 341.95 25.55 341.1 25.55 340.5 26.1 339.95 26.7 339.95 27.55
L 339.95 39.6
Q 339.95 40.45 340.5 41.05 341.1 41.6 341.95 41.6 342.8 41.6 343.35 41.05 343.95 40.45 343.95 39.6
L 343.95 32.4
Q 343.95 31.5 344.3 30.75 344.7 30 345.45 29.55 346.15 29.15 347.2 29.15 348.55 29.15 349.3 30 350.05 30.85 350.05 32.25
L 350.05 39.6
Q 350.05 40.45 350.6 41.05 351.2 41.6 352.05 41.6 352.9 41.6 353.5 41.05 354.05 40.45 354.05 39.6
L 354.05 31.55
Q 354.05 29.55 353.35 28.2 352.6 26.8 351.35 26.1 350.05 25.4 348.45 25.4 346.65 25.4 345.4 26.3 344.62109375 26.8091796875 343.95 27.65 Z"/>
</g>
</defs>

<g transform="matrix( -0.9999847412109375, 0, 0, 1, 248.3,0) ">
<use xlink:href="#Layer0_0_FILL"/>
</g>

<g transform="matrix( 1, 0, 0, 1, 26.65,-0.55) ">
<use xlink:href="#Layer0_1_FILL"/>
</g>
</svg>
