
<svg xmlns="http://www.w3.org/2000/svg" version="1.1" xmlns:xlink="http://www.w3.org/1999/xlink" preserveAspectRatio="none" x="0px" y="0px" width="500px" height="62px" viewBox="0 0 500 62">
<defs>
<g id="Symbol_4_0_Layer0_0_FILL">
<path fill="#FFFFFF" stroke="none" d="
M 178.9 22.35
Q 176.25 22.35 174.15 23.75 172.05 25.15 170.85 27.6 169.65 30.1 169.65 33.35 169.65 36.55 170.85 39 172.05 41.5 174.1 42.9 176.2 44.25 178.9 44.25 181.6 44.25 183.65 42.9 185.75 41.5 186.95 39 188.15 36.55 188.15 33.35 188.15 30.1 186.95 27.6 185.7 25.15 183.65 23.75 181.6 22.35 178.9 22.35
M 178.9 26.1
Q 180.5 26.1 181.65 26.95 182.75 27.8 183.35 29.45 183.95 31.1 183.95 33.35 183.95 35.6 183.35 37.2 182.75 38.8 181.65 39.65 180.5 40.55 178.9 40.55 177.3 40.55 176.15 39.65 175 38.8 174.4 37.2 173.8 35.6 173.8 33.35 173.8 31.1 174.4 29.45 175 27.8 176.15 26.95 177.3 26.1 178.9 26.1
M 175.95 16.4
Q 175 16.4 174.4 17 173.8 17.65 173.8 18.7 173.8 19.8 174.4 20.4 175 21 175.95 21 176.95 21 177.55 20.4 178.15 19.8 178.15 18.7 178.15 17.65 177.55 17 176.95 16.4 175.95 16.4
M 183.35 20.4
Q 183.95 19.8 183.95 18.7 183.95 17.65 183.35 17 182.75 16.4 181.75 16.4 180.85 16.4 180.25 17 179.65 17.65 179.65 18.7 179.65 19.8 180.25 20.4 180.85 21 181.75 21 182.75 21 183.35 20.4
M 238.9 36.55
Q 239.45 35.9 239.45 34.8 239.45 33.6 239 32.4 238.5 31.2 237.55 30.2 236.65 29.15 235.3 28.55 233.95 27.9 232.3 27.9 230.05 27.9 228.4 29 226.75 30.1 225.9 31.95 225 33.85 225 36.15 225 38.6 225.95 40.45 226.95 42.25 228.65 43.25 230.35 44.25 232.5 44.25 233.9 44.25 235.1 43.9 236.25 43.6 237.15 43.05 238 42.5 238.5 41.8 239 41.15 239 40.4 239 39.55 238.5 39.05 238 38.55 237.2 38.55 236.6 38.55 236.25 38.8 235.85 39.05 235.55 39.35 235.1 39.9 234.5 40.3 233.9 40.7 232.9 40.7 231.95 40.7 231.2 40.3 230.45 39.95 229.9 39.2 229.35 38.4 229.15 37.2
L 237.1 37.2
Q 238.35 37.2 238.9 36.55
M 234.45 32.2
Q 235.25 32.95 235.45 34.45
L 229.15 34.45
Q 229.4 32.9 230.2 32.15 231.05 31.45 232.35 31.45 233.6 31.45 234.45 32.2
M 205.3 30.7
Q 204.55 29.3 203.3 28.6 202 27.9 200.4 27.9 198.6 27.9 197.35 28.8 196.57109375 29.3091796875 195.9 30.15
L 195.9 30.05
Q 195.9 29.2 195.3 28.65 194.7 28.05 193.9 28.05 193.05 28.05 192.45 28.6 191.9 29.2 191.9 30.05
L 191.9 42.1
Q 191.9 42.95 192.45 43.55 193.05 44.1 193.9 44.1 194.75 44.1 195.3 43.55 195.9 42.95 195.9 42.1
L 195.9 34.9
Q 195.9 34 196.25 33.25 196.65 32.5 197.4 32.05 198.1 31.65 199.15 31.65 200.5 31.65 201.25 32.5 202 33.35 202 34.75
L 202 42.1
Q 202 42.95 202.55 43.55 203.15 44.1 204 44.1 204.85 44.1 205.45 43.55 206 42.95 206 42.1
L 206 34.05
Q 206 32.05 205.3 30.7
M 221.25 29.7
Q 220.6 28.9 219.4 28.4 218.2 27.9 216.65 27.9 214.4 27.9 212.7 29 211 30.05 210.05 31.9 209.15 33.75 209.15 36.05 209.15 38.35 210.1 40.25 211.05 42.1 212.7 43.15 214.35 44.25 216.55 44.25 217.95 44.25 219.1 43.85 220.25 43.4 221.05 42.75 221.85 42.05 222.3 41.25 222.75 40.45 222.8 39.75 222.8 38.9 222.25 38.3 221.7 37.7 220.9 37.7 220.3 37.7 219.95 38.05 219.6 38.4 219.3 38.95 218.95 39.55 218.4 40.05 217.8 40.6 216.7 40.6 215.05 40.6 214.15 39.4 213.25 38.25 213.25 36.05 213.25 34.6 213.65 33.6 214.05 32.6 214.8 32.05 215.55 31.5 216.55 31.5 217.5 31.5 217.95 31.9 218.45 32.25 218.7 32.6 218.95 32.85 219.3 33 219.65 33.2 220.1 33.2 220.9 33.2 221.45 32.75 222 32.3 221.95 31.45 221.95 30.5 221.25 29.7
M 260 28.65
Q 259.4 29.2 259.4 30.05
L 259.4 42.1
Q 259.4 42.9 260 43.5 260.55 44.1 261.4 44.1 262.2 44.1 262.8 43.5 263.4 42.9 263.4 42.1
L 263.4 30.05
Q 263.4 29.2 262.8 28.65 262.2 28.05 261.4 28.05 260.55 28.05 260 28.65
M 262.95 22.5
Q 262.35 21.9 261.4 21.9 260.45 21.9 259.85 22.5 259.25 23.15 259.25 24.2 259.25 25.3 259.85 25.9 260.45 26.5 261.4 26.5 262.35 26.5 262.95 25.9 263.55 25.3 263.55 24.2 263.55 23.15 262.95 22.5
M 246.75 23.9
Q 246.75 23.05 246.15 22.5 245.55 21.9 244.75 21.9 243.9 21.9 243.35 22.5 242.75 23.05 242.75 23.9
L 242.75 42.1
Q 242.75 42.95 243.35 43.5 243.9 44.1 244.75 44.1 245.55 44.1 246.15 43.5 246.75 42.95 246.75 42.1
L 246.75 38.55 248.55 37.1 252.75 43.25
Q 253.05 43.6 253.5 43.85 253.9 44.1 254.4 44.1 255.25 44.1 255.8 43.5 256.4 42.95 256.4 42.1 256.4 41.45 256 40.95
L 251.55 34.6 255.3 31.6
Q 256.05 31 256.05 30.05 256.05 29.2 255.45 28.65 254.9 28.1 254.05 28.1 253.3 28.1 252.75 28.55
L 246.75 33.4 246.75 23.9
M 297.05 29.6
Q 296.85 30.25 297.05 30.85
L 302 43.25 301 45.9
Q 300.95 46.15 300.8 46.3 300.7 46.45 300.45 46.45 300.35 46.45 300.15 46.35 299.95 46.25 299.8 46.05 299.6 45.8 299.3 45.55 299 45.3 298.3 45.3 297.45 45.3 296.95 45.8 296.45 46.25 296.45 47.05 296.45 47.8 296.95 48.55 297.5 49.3 298.45 49.75 299.4 50.2 300.7 50.2 302.35 50.2 303.25 49.35 304.15 48.45 304.9 46.6
L 311.2 30.75
Q 311.4 30.2 311.25 29.55 311.1 28.9 310.6 28.5 310.15 28.05 309.4 28.05 308.7 28.05 308.2 28.4 307.7 28.75 307.5 29.3
L 304.15 38.05 300.8 29.5
Q 300.55 28.85 300.05 28.45 299.55 28.05 298.9 28.05 298.15 28.05 297.65 28.5 297.2 29 297.05 29.6
M 289.4 23.75
Q 287.35 22.35 284.65 22.35 282 22.35 279.9 23.75 277.8 25.15 276.6 27.6 275.4 30.1 275.4 33.35 275.4 36.55 276.6 39 277.8 41.5 279.85 42.9 281.95 44.25 284.65 44.25 287.35 44.25 289.4 42.9 291.5 41.5 292.7 39 293.9 36.55 293.9 33.35 293.9 30.1 292.7 27.6 291.45 25.15 289.4 23.75
M 289.1 29.45
Q 289.7 31.1 289.7 33.35 289.7 35.6 289.1 37.2 288.5 38.8 287.4 39.65 286.25 40.55 284.65 40.55 283.05 40.55 281.9 39.65 280.75 38.8 280.15 37.2 279.55 35.6 279.55 33.35 279.55 31.1 280.15 29.45 280.75 27.8 281.9 26.95 283.05 26.1 284.65 26.1 286.25 26.1 287.4 26.95 288.5 27.8 289.1 29.45
M 324.3 29.9
L 324.3 37.1
Q 324.3 38 323.9 38.7 323.55 39.45 322.8 39.9 322.1 40.35 321.05 40.35 319.8 40.35 318.95 39.75 318.15 39.15 318.15 37.5
L 318.15 29.9
Q 318.15 29.05 317.6 28.5 317.05 27.9 316.2 27.9 315.35 27.9 314.8 28.5 314.2 29.05 314.2 29.9
L 314.2 38.15
Q 314.2 40.05 314.8 41.35 315.45 42.7 316.65 43.4 317.9 44.1 319.8 44.1 321.6 44.1 322.9 43.2 323.6443359375 42.6640625 324.3 41.8
L 324.3 42.1
Q 324.3 42.9 324.9 43.5 325.5 44.05 326.35 44.05 327.15 44.05 327.75 43.5 328.3 42.9 328.3 42.1
L 328.3 29.9
Q 328.3 29.05 327.75 28.5 327.15 27.9 326.35 27.9 325.5 27.9 324.9 28.5 324.3 29.05 324.3 29.9
M 343.9 28.6
Q 342.6 27.9 341 27.9 339.2 27.9 337.95 28.8 337.17109375 29.3091796875 336.5 30.15
L 336.5 30.05
Q 336.5 29.2 335.9 28.65 335.3 28.05 334.5 28.05 333.65 28.05 333.05 28.6 332.5 29.2 332.5 30.05
L 332.5 42.1
Q 332.5 42.95 333.05 43.55 333.65 44.1 334.5 44.1 335.35 44.1 335.9 43.55 336.5 42.95 336.5 42.1
L 336.5 34.9
Q 336.5 34 336.85 33.25 337.25 32.5 338 32.05 338.7 31.65 339.75 31.65 341.1 31.65 341.85 32.5 342.6 33.35 342.6 34.75
L 342.6 42.1
Q 342.6 42.95 343.15 43.55 343.75 44.1 344.6 44.1 345.45 44.1 346.05 43.55 346.6 42.95 346.6 42.1
L 346.6 34.05
Q 346.6 32.05 345.9 30.7 345.15 29.3 343.9 28.6 Z"/>
</g>

<g id="Symbol_4_0_Layer0_1_FILL">
<path fill="#FFFFFF" stroke="none" d="
M 122.8 43.8
Q 125.1 41.45 126.65 38 128 34.8 128 31 128 27.4 126.65 24 125.1 20.65 122.8 18.3 120.35 15.95 117 14.45 113.6 13 110 13 106.55 13 102.95 14.45 99.65 15.95 97.3 18.3 94.95 20.65 93.45 24 92 27.6 92 31 92 34.6 93.45 38 94.85 41.45 97.3 43.8 99.65 46.1 102.95 47.65 106.3 49 110 49 113.8 49 117 47.65 120.35 46.2 122.8 43.8
M 110 16.6
Q 116.05 16.6 120.25 20.85 124.4 24.95 124.4 31 124.4 37.1 120.25 41.25 116.1 45.4 110 45.4 103.95 45.4 99.8 41.25 95.6 37.05 95.6 31 95.6 25.05 99.8 20.85 104.05 16.6 110 16.6
M 116.75 32.35
Q 117.2 31.9 117.2 31 117.2 30.2 116.75 29.75 116.2 29.2 115.4 29.2
L 109.65 29.2 111.25 27.6
Q 111.8 27.2 111.8 26.3 111.8 25.6 111.25 25.05 110.8 24.6 110 24.6 109.35 24.6 108.75 25.05
L 104.05 29.75
Q 103.5 30.3 103.5 31 103.5 31.7 104.05 32.25
L 108.75 36.95
Q 109.25 37.5 110 37.5 110.8 37.5 111.25 36.95 111.8 36.6 111.8 35.7 111.8 34.95 111.25 34.4
L 109.65 32.8 115.4 32.8
Q 116.3 32.8 116.75 32.35 Z"/>
</g>
</defs>

<g transform="matrix( 1, 0, 0, 1, 124.55,13) ">
<g transform="matrix( 1, 0, 0, 1, -95.65,-15.3) ">
<use xlink:href="#Symbol_4_0_Layer0_0_FILL"/>
</g>

<g transform="matrix( 1, 0, 0, 1, -92,-13) ">
<use xlink:href="#Symbol_4_0_Layer0_1_FILL"/>
</g>
</g>
</svg>
