
<svg xmlns="http://www.w3.org/2000/svg" version="1.1" xmlns:xlink="http://www.w3.org/1999/xlink" preserveAspectRatio="none" x="0px" y="0px" width="500px" height="62px" viewBox="0 0 500 62">
<defs>
<g id="Layer0_0_FILL">
<path fill="#FFFFFF" stroke="none" d="
M 7.25 16.75
Q 7.5 17 8 17
L 11.5 17
Q 11.95 17 12.2 16.75 12.5 16.45 12.5 16 12.5 15.6 12.2 15.3 11.9 15 11.5 15
L 8 15
Q 7.55 15 7.25 15.3 7 15.55 7 16 7 16.5 7.25 16.75
M 18.75 11.75
Q 18 11 17 11 15.95 11 15.2 11.75 14.5 12.45 14.5 13.5 14.5 14.6 15.2 15.3 15.9 16 17 16 18.05 16 18.75 15.3 19.5 14.55 19.5 13.5 19.5 12.5 18.75 11.75
M 16.7 8.75
Q 17 8.45 17 8 17 7.6 16.7 7.3 16.4 7 16 7
L 8 7
Q 7.55 7 7.25 7.3 7 7.55 7 8 7 8.5 7.25 8.75 7.5 9 8 9
L 16 9
Q 16.45 9 16.7 8.75
M 12.2 11.3
Q 11.9 11 11.5 11
L 8 11
Q 7.55 11 7.25 11.3 7 11.55 7 12 7 12.5 7.25 12.75 7.5 13 8 13
L 11.5 13
Q 11.95 13 12.2 12.75 12.5 12.45 12.5 12 12.5 11.6 12.2 11.3
M 20.7 10.2
Q 21 9.9 21 9.45
L 21 5
Q 21 4.2 20.4 3.6 19.8 3 19 3
L 5 3
Q 4.15 3 3.55 3.6 3 4.15 3 5
L 3 19
Q 3 19.9 3.55 20.45 4.1 21 5 21
L 9 21
Q 9.45 21 9.7 20.75 10 20.45 10 20 10 19.6 9.7 19.3 9.4 19 9 19
L 5 19 5 5 19 5 19 9.45
Q 19 9.95 19.25 10.2 19.5 10.45 20 10.45 20.45 10.45 20.7 10.2
M 21 21
Q 21.45 21 21.7 20.75 22 20.45 22 20
L 22 19.6
Q 22 19.1 21.65 18.5 21.35 18 20.8 17.75 20.2 17.5 18.9 17.2 17.6 17 17 17 16.35 17 15.05 17.2 13.85 17.5 13.2 17.75 12.6 18 12.3 18.5 12 19.05 12 19.6
L 12 20
Q 12 20.5 12.25 20.75 12.5 21 13 21
L 21 21 Z"/>
</g>

<g id="Layer0_1_FILL">
<path fill="#FFFFFF" stroke="none" d="
M 210.95 17.35
L 206.35 23.85 202.05 17.35
Q 201.5 16.5 200.35 16.5 199.5 16.5 198.9 17.1 198.3 17.7 198.3 18.55 198.3 19.2 198.65 19.75
L 204.2 28.05 204.2 36.05
Q 204.2 36.9 204.8 37.5 205.4 38.1 206.3 38.1 207.15 38.1 207.75 37.5 208.35 36.9 208.35 36.05
L 208.35 28.1 214.25 19.8
Q 214.65 19.25 214.65 18.55 214.65 17.75 214.05 17.1 213.4 16.5 212.6 16.5 211.55 16.5 210.95 17.35
M 229 24.7
Q 228.3 23.4 226.95 22.65 225.55 21.95 223.5 21.95 222.2 21.95 221.05 22.25 219.9 22.55 219.05 23.1 218.2 23.65 217.75 24.3 217.25 25 217.25 25.75 217.25 26.5 217.75 26.95 218.25 27.35 219.05 27.35 219.7 27.35 220.15 27.1 220.65 26.85 221.05 26.45 221.45 25.95 222.05 25.6 222.65 25.25 223.55 25.25 224.3 25.25 224.75 25.4 225.25 25.65 225.5 26 225.75 26.35 225.75 26.8 225.75 27.4 225.25 27.7 224.75 28 223.95 28.15 223.15 28.25 222.15 28.4 218.95 28.9 217.5 30.15 216.1 31.4 216.1 33.55 216.1 35.1 216.85 36.15 217.6 37.15 218.85 37.7 220.05 38.25 221.45 38.25 223.3 38.25 224.4 37.6 225.5 36.95 226.35 35.75
L 226.4 35.75 226.45 35.95
Q 226.65 36.9 227.3 37.5 228 38.05 229.2 38.1 230.3 38.15 230.9 37.55 231.5 37 231.5 36.15 231.5 35.45 231.05 35.05 230.65 34.6 230.15 34.45 229.9 34.35 229.8 34.2 229.7 34.1 229.7 33.7
L 229.7 27.75
Q 229.7 26.05 229 24.7
M 222.3 34.85
Q 221.2 34.85 220.65 34.4 220.1 33.95 220.1 33.2 220.1 32.55 220.6 32.05 221.15 31.6 222.5 31.35 223.1 31.2 223.65 31.1 224.2 31.05 224.7 30.95 225.25 30.8 225.6 30.55 225.65 30.5 225.7 30.5 225.75 30.5 225.75 30.6
L 225.75 31.65
Q 225.75 32.65 225.3 33.35 224.85 34.1 224.05 34.45 223.25 34.85 222.3 34.85
M 261.3 24.7
Q 260.6 23.4 259.25 22.65 257.85 21.95 255.8 21.95 254.5 21.95 253.35 22.25 252.2 22.55 251.35 23.1 250.5 23.65 250.05 24.3 249.55 25 249.55 25.75 249.55 26.5 250.05 26.95 250.55 27.35 251.35 27.35 252 27.35 252.45 27.1 252.95 26.85 253.35 26.45 253.75 25.95 254.35 25.6 254.95 25.25 255.85 25.25 256.6 25.25 257.05 25.4 257.55 25.65 257.8 26 258.05 26.35 258.05 26.8 258.05 27.4 257.55 27.7 257.05 28 256.25 28.15 255.45 28.25 254.45 28.4 251.25 28.9 249.8 30.15 248.4 31.4 248.4 33.55 248.4 35.1 249.15 36.15 249.9 37.15 251.15 37.7 252.35 38.25 253.75 38.25 255.6 38.25 256.7 37.6 257.8 36.95 258.65 35.75
L 258.7 35.75 258.75 35.95
Q 258.95 36.9 259.6 37.5 260.3 38.05 261.5 38.1 262.6 38.15 263.2 37.55 263.8 37 263.8 36.15 263.8 35.45 263.35 35.05 262.95 34.6 262.45 34.45 262.2 34.35 262.1 34.2 262 34.1 262 33.7
L 262 27.75
Q 262 26.05 261.3 24.7
M 257.9 30.55
Q 257.95 30.5 258 30.5 258.05 30.5 258.05 30.6
L 258.05 31.65
Q 258.05 32.65 257.6 33.35 257.15 34.1 256.35 34.45 255.55 34.85 254.6 34.85 253.5 34.85 252.95 34.4 252.4 33.95 252.4 33.2 252.4 32.55 252.9 32.05 253.45 31.6 254.8 31.35 255.4 31.2 255.95 31.1 256.5 31.05 257 30.95 257.55 30.8 257.9 30.55
M 245.45 24.25
Q 245.35 23.45 244.75 22.9 244.2 22.35 243.25 22.35
L 235.5 22.35
Q 234.65 22.35 234.1 22.9 233.5 23.45 233.5 24.2 233.5 25 234.1 25.5 234.65 26.05 235.5 26.05
L 239.95 26.05 233.8 34.4
Q 233.3 35.1 233.4 35.9 233.5 36.7 234.1 37.25 234.65 37.8 235.55 37.8
L 243.95 37.8
Q 244.8 37.8 245.4 37.25 246 36.65 246 35.9 246 35.15 245.4 34.6 244.8 34.1 243.95 34.1
L 238.9 34.1 245 25.8
Q 245.55 25.05 245.45 24.25
M 282.7 17.9
Q 282.7 17.05 282.1 16.45 281.55 15.9 280.7 15.9 279.85 15.9 279.25 16.45 278.7 17.05 278.7 17.9
L 278.7 36.05
Q 278.7 36.95 279.25 37.5 279.85 38.1 280.7 38.1 281.55 38.1 282.1 37.5 282.7 36.95 282.7 36.05
L 282.7 17.9
M 270.85 23.65
Q 270.6916015625 23.866015625 270.55 24.05
L 270.55 24.05
Q 270.55 23.25 270.05 22.65 269.5 22.05 268.6 22.05 267.75 22.05 267.15 22.65 266.55 23.2 266.55 24.05
L 266.55 36.1
Q 266.55 36.95 267.15 37.5 267.7 38.1 268.55 38.1 269.35 38.1 269.95 37.5 270.55 36.95 270.55 36.1
L 270.55 29.15
Q 270.55 28.2 270.9 27.45 271.25 26.7 271.95 26.3 272.65 25.85 273.8 25.85 274.8 25.85 275.4 25.3 276 24.7 276 23.9 276 22.95 275.4 22.4 274.85 21.9 273.85 21.9 272.95 21.9 272.15 22.4 271.4 22.9 270.85 23.65
M 298.9 24.7
Q 298.2 23.4 296.85 22.65 295.45 21.95 293.4 21.95 292.1 21.95 290.95 22.25 289.8 22.55 288.95 23.1 288.1 23.65 287.65 24.3 287.15 25 287.15 25.75 287.15 26.5 287.65 26.95 288.15 27.35 288.95 27.35 289.6 27.35 290.05 27.1 290.55 26.85 290.95 26.45 291.35 25.95 291.95 25.6 292.55 25.25 293.45 25.25 294.2 25.25 294.65 25.4 295.15 25.65 295.4 26 295.65 26.35 295.65 26.8 295.65 27.4 295.15 27.7 294.65 28 293.85 28.15 293.05 28.25 292.05 28.4 288.85 28.9 287.4 30.15 286 31.4 286 33.55 286 35.1 286.75 36.15 287.5 37.15 288.75 37.7 289.95 38.25 291.35 38.25 293.2 38.25 294.3 37.6 295.4 36.95 296.25 35.75
L 296.3 35.75 296.35 35.95
Q 296.55 36.9 297.2 37.5 297.9 38.05 299.1 38.1 300.2 38.15 300.8 37.55 301.4 37 301.4 36.15 301.4 35.45 300.95 35.05 300.55 34.6 300.05 34.45 299.8 34.35 299.7 34.2 299.6 34.1 299.6 33.7
L 299.6 27.75
Q 299.6 26.05 298.9 24.7
M 295.5 30.55
Q 295.55 30.5 295.6 30.5 295.65 30.5 295.65 30.6
L 295.65 31.65
Q 295.65 32.65 295.2 33.35 294.75 34.1 293.95 34.45 293.15 34.85 292.2 34.85 291.1 34.85 290.55 34.4 290 33.95 290 33.2 290 32.55 290.5 32.05 291.05 31.6 292.4 31.35 293 31.2 293.55 31.1 294.1 31.05 294.6 30.95 295.15 30.8 295.5 30.55
M 304.75 22.65
Q 304.15 23.2 304.15 24.05
L 304.15 36.1
Q 304.15 36.95 304.75 37.5 305.3 38.1 306.15 38.1 306.95 38.1 307.55 37.5 308.15 36.95 308.15 36.1
L 308.15 29.15
Q 308.15 28.2 308.5 27.45 308.85 26.7 309.55 26.3 310.25 25.85 311.4 25.85 312.4 25.85 313 25.3 313.6 24.7 313.6 23.9 313.6 22.95 313 22.4 312.45 21.9 311.45 21.9 310.55 21.9 309.75 22.4 309 22.9 308.45 23.65 308.2916015625 23.866015625 308.15 24.05
L 308.15 24.05
Q 308.15 23.25 307.65 22.65 307.1 22.05 306.2 22.05 305.35 22.05 304.75 22.65
M 339.2 16.55
Q 338.3 16.55 337.7 17.15 337.1 17.75 337.1 18.65
L 337.1 25.25 329 25.25 329 18.65
Q 329 17.75 328.4 17.15 327.85 16.55 326.9 16.55 326 16.55 325.45 17.15 324.85 17.75 324.85 18.65
L 324.85 36.05
Q 324.85 36.95 325.45 37.5 326 38.1 326.9 38.1 327.85 38.1 328.4 37.5 329 36.95 329 36.05
L 329 29 337.1 29 337.1 36.05
Q 337.1 36.95 337.7 37.5 338.3 38.1 339.2 38.1 340.1 38.1 340.65 37.5 341.25 36.95 341.25 36.05
L 341.25 18.65
Q 341.25 17.75 340.65 17.15 340.1 16.55 339.2 16.55
M 357.75 24.7
Q 357.05 23.4 355.7 22.65 354.3 21.95 352.25 21.95 350.95 21.95 349.8 22.25 348.65 22.55 347.8 23.1 346.95 23.65 346.5 24.3 346 25 346 25.75 346 26.5 346.5 26.95 347 27.35 347.8 27.35 348.45 27.35 348.9 27.1 349.4 26.85 349.8 26.45 350.2 25.95 350.8 25.6 351.4 25.25 352.3 25.25 353.05 25.25 353.5 25.4 354 25.65 354.25 26 354.5 26.35 354.5 26.8 354.5 27.4 354 27.7 353.5 28 352.7 28.15 351.9 28.25 350.9 28.4 347.7 28.9 346.25 30.15 344.85 31.4 344.85 33.55 344.85 35.1 345.6 36.15 346.35 37.15 347.6 37.7 348.8 38.25 350.2 38.25 352.05 38.25 353.15 37.6 354.25 36.95 355.1 35.75
L 355.15 35.75 355.2 35.95
Q 355.4 36.9 356.05 37.5 356.75 38.05 357.95 38.1 359.05 38.15 359.65 37.55 360.25 37 360.25 36.15 360.25 35.45 359.8 35.05 359.4 34.6 358.9 34.45 358.65 34.35 358.55 34.2 358.45 34.1 358.45 33.7
L 358.45 27.75
Q 358.45 26.05 357.75 24.7
M 354.45 30.5
Q 354.5 30.5 354.5 30.6
L 354.5 31.65
Q 354.5 32.65 354.05 33.35 353.6 34.1 352.8 34.45 352 34.85 351.05 34.85 349.95 34.85 349.4 34.4 348.85 33.95 348.85 33.2 348.85 32.55 349.35 32.05 349.9 31.6 351.25 31.35 351.85 31.2 352.4 31.1 352.95 31.05 353.45 30.95 354 30.8 354.35 30.55 354.4 30.5 354.45 30.5
M 366.4 16.5
Q 365.8 15.9 365 15.9 364.15 15.9 363.6 16.5 363 17.05 363 17.9
L 363 36.1
Q 363 36.95 363.6 37.5 364.15 38.1 365 38.1 365.8 38.1 366.4 37.5 367 36.95 367 36.1
L 367 32.55 368.8 31.1 373 37.25
Q 373.3 37.6 373.75 37.85 374.15 38.1 374.65 38.1 375.5 38.1 376.05 37.5 376.65 36.95 376.65 36.1 376.65 35.45 376.25 34.95
L 371.8 28.6 375.55 25.6
Q 376.3 25 376.3 24.05 376.3 23.2 375.7 22.65 375.15 22.1 374.3 22.1 373.55 22.1 373 22.55
L 367 27.4 367 17.9
Q 367 17.05 366.4 16.5
M 396.9 22.65
Q 396.3 23.2 396.3 24.05
L 396.3 36.1
Q 396.3 36.9 396.9 37.5 397.45 38.1 398.3 38.1 399.1 38.1 399.7 37.5 400.3 36.9 400.3 36.1
L 400.3 24.05
Q 400.3 23.2 399.7 22.65 399.1 22.05 398.3 22.05 397.45 22.05 396.9 22.65
M 392.95 24.05
Q 392.95 23.2 392.35 22.65 391.8 22.1 390.95 22.1 390.2 22.1 389.65 22.55
L 383.65 27.4 383.65 17.9
Q 383.65 17.05 383.05 16.5 382.45 15.9 381.65 15.9 380.8 15.9 380.25 16.5 379.65 17.05 379.65 17.9
L 379.65 36.1
Q 379.65 36.95 380.25 37.5 380.8 38.1 381.65 38.1 382.45 38.1 383.05 37.5 383.65 36.95 383.65 36.1
L 383.65 32.55 385.45 31.1 389.65 37.25
Q 389.95 37.6 390.4 37.85 390.8 38.1 391.3 38.1 392.15 38.1 392.7 37.5 393.3 36.95 393.3 36.1 393.3 35.45 392.9 34.95
L 388.45 28.6 392.2 25.6
Q 392.95 25 392.95 24.05
M 417.9 24.7
Q 417.15 23.3 415.9 22.6 414.6 21.9 413 21.9 411.2 21.9 409.95 22.8 409.17109375 23.3091796875 408.5 24.15
L 408.5 24.05
Q 408.5 23.2 407.9 22.65 407.3 22.05 406.5 22.05 405.65 22.05 405.05 22.6 404.5 23.2 404.5 24.05
L 404.5 36.1
Q 404.5 36.95 405.05 37.55 405.65 38.1 406.5 38.1 407.35 38.1 407.9 37.55 408.5 36.95 408.5 36.1
L 408.5 28.9
Q 408.5 28 408.85 27.25 409.25 26.5 410 26.05 410.7 25.65 411.75 25.65 413.1 25.65 413.85 26.5 414.6 27.35 414.6 28.75
L 414.6 36.1
Q 414.6 36.95 415.15 37.55 415.75 38.1 416.6 38.1 417.45 38.1 418.05 37.55 418.6 36.95 418.6 36.1
L 418.6 28.05
Q 418.6 26.05 417.9 24.7
M 430.45 22.2
Q 429.55 21.9 428.45 21.9 426.5 21.9 424.95 22.95 423.45 24 422.6 25.8 421.75 27.65 421.75 30.05 421.75 32.45 422.6 34.3 423.45 36.15 424.95 37.2 426.45 38.25 428.45 38.25 429.8 38.25 430.8 37.7 431.8 37.15 432.45 36.35 432.5923828125 36.1771484375 432.7 36 432.8037109375 36.8208984375 433.3 37.4 433.85 38.1 434.7 38.1 435.6 38.1 436.15 37.5 436.7 36.95 436.7 36.05
L 436.7 17.9
Q 436.7 17.05 436.15 16.45 435.6 15.9 434.7 15.9 433.85 15.9 433.3 16.45 432.7 17.05 432.7 17.9
L 432.7 23.7
Q 432.396484375 23.4041015625 432.05 23.15 431.35 22.55 430.45 22.2
M 431.95 26.75
Q 432.85 28 432.85 30.1 432.85 32.25 431.9 33.45 430.95 34.6 429.4 34.65 427.7 34.65 426.8 33.45 425.8 32.25 425.8 30.1 425.8 27.95 426.8 26.75 427.7 25.5 429.35 25.5 431 25.5 431.95 26.75
M 450.85 22.65
Q 449.45 21.95 447.4 21.95 446.1 21.95 444.95 22.25 443.8 22.55 442.95 23.1 442.1 23.65 441.65 24.3 441.15 25 441.15 25.75 441.15 26.5 441.65 26.95 442.15 27.35 442.95 27.35 443.6 27.35 444.05 27.1 444.55 26.85 444.95 26.45 445.35 25.95 445.95 25.6 446.55 25.25 447.45 25.25 448.2 25.25 448.65 25.4 449.15 25.65 449.4 26 449.65 26.35 449.65 26.8 449.65 27.4 449.15 27.7 448.65 28 447.85 28.15 447.05 28.25 446.05 28.4 442.85 28.9 441.4 30.15 440 31.4 440 33.55 440 35.1 440.75 36.15 441.5 37.15 442.75 37.7 443.95 38.25 445.35 38.25 447.2 38.25 448.3 37.6 449.4 36.95 450.25 35.75
L 450.3 35.75 450.35 35.95
Q 450.55 36.9 451.2 37.5 451.9 38.05 453.1 38.1 454.2 38.15 454.8 37.55 455.4 37 455.4 36.15 455.4 35.45 454.95 35.05 454.55 34.6 454.05 34.45 453.8 34.35 453.7 34.2 453.6 34.1 453.6 33.7
L 453.6 27.75
Q 453.6 26.05 452.9 24.7 452.2 23.4 450.85 22.65
M 449.6 30.5
Q 449.65 30.5 449.65 30.6
L 449.65 31.65
Q 449.65 32.65 449.2 33.35 448.75 34.1 447.95 34.45 447.15 34.85 446.2 34.85 445.1 34.85 444.55 34.4 444 33.95 444 33.2 444 32.55 444.5 32.05 445.05 31.6 446.4 31.35 447 31.2 447.55 31.1 448.1 31.05 448.6 30.95 449.15 30.8 449.5 30.55 449.55 30.5 449.6 30.5 Z"/>
</g>
</defs>

<g transform="matrix( 1.89471435546875, 0, 0, 1.8944244384765625, 78.75,8.25) ">
<use xlink:href="#Layer0_0_FILL"/>
</g>

<g transform="matrix( 1, 0, 0, 1, -39.85,4.95) ">
<use xlink:href="#Layer0_1_FILL"/>
</g>
</svg>
